<svg width="263" height="197" viewBox="0 0 263 197" fill="none" xmlns="http://www.w3.org/2000/svg">
<mask id="mask0_596_106" style="mask-type:luminance" maskUnits="userSpaceOnUse" x="2" y="93" width="138" height="103">
<path d="M34.3696 93.11H2.84961L107.83 195.24H139.35L34.3696 93.11Z" fill="white"/>
</mask>
<g mask="url(#mask0_596_106)">
<path opacity="0.7" d="M244.544 333.939C260.942 317.541 203.109 233.121 115.37 145.382C27.6305 57.6427 -56.7894 -0.190601 -73.1875 16.2075C-89.5856 32.6056 -31.7523 117.026 55.9868 204.765C143.726 292.504 228.146 350.337 244.544 333.939Z" fill="url(#paint0_radial_596_106)" style="mix-blend-mode:multiply"/>
</g>
<mask id="mask1_596_106" style="mask-type:luminance" maskUnits="userSpaceOnUse" x="2" y="41" width="208" height="156">
<path d="M50.5901 41.67H2.87012L161.79 196.28H209.5L50.5901 41.67Z" fill="white"/>
</mask>
<g mask="url(#mask1_596_106)">
<path opacity="0.7" d="M368.741 406.217C393.562 381.396 306.018 253.607 173.204 120.794C40.3909 -12.0197 -87.3977 -99.5643 -112.219 -74.7425C-137.041 -49.9208 -49.4965 77.8677 83.3169 210.681C216.13 343.495 343.919 431.039 368.741 406.217Z" fill="url(#paint1_radial_596_106)" style="mix-blend-mode:multiply"/>
</g>
<mask id="mask2_596_106" style="mask-type:luminance" maskUnits="userSpaceOnUse" x="0" y="0" width="263" height="197">
<path d="M60.57 0H0L201.75 196.28H262.32L60.57 0Z" fill="white"/>
</mask>
<g mask="url(#mask2_596_106)">
<path opacity="0.7" d="M464.482 462.822C495.993 431.31 384.848 269.074 216.231 100.458C47.6142 -68.159 -114.622 -179.305 -146.133 -147.793C-177.644 -116.282 -66.4986 45.9539 102.118 214.571C270.735 383.187 432.971 494.333 464.482 462.822Z" fill="url(#paint2_radial_596_106)" style="mix-blend-mode:multiply"/>
</g>
<defs>
<radialGradient id="paint0_radial_596_106" cx="0" cy="0" r="1" gradientUnits="userSpaceOnUse" gradientTransform="translate(77.7804 171.08) rotate(-135) scale(224.782 42.1467)">
<stop stop-color="#1B1464" stop-opacity="0.5"/>
<stop offset="0.06" stop-color="#142B5E" stop-opacity="0.37"/>
<stop offset="0.16" stop-color="#0B4A58" stop-opacity="0.2"/>
<stop offset="0.3" stop-color="#056053" stop-opacity="0.09"/>
<stop offset="0.48" stop-color="#016C50" stop-opacity="0.02"/>
<stop offset="1" stop-color="#017050" stop-opacity="0"/>
</radialGradient>
<radialGradient id="paint1_radial_596_106" cx="0" cy="0" r="1" gradientUnits="userSpaceOnUse" gradientTransform="translate(120.457 161.653) rotate(-135) scale(340.282 63.8028)">
<stop stop-color="#1B1464" stop-opacity="0.5"/>
<stop offset="0.06" stop-color="#142B5E" stop-opacity="0.37"/>
<stop offset="0.16" stop-color="#0B4A58" stop-opacity="0.2"/>
<stop offset="0.3" stop-color="#056053" stop-opacity="0.09"/>
<stop offset="0.48" stop-color="#016C50" stop-opacity="0.02"/>
<stop offset="1" stop-color="#017050" stop-opacity="0"/>
</radialGradient>
<radialGradient id="paint2_radial_596_106" cx="0" cy="0" r="1" gradientUnits="userSpaceOnUse" gradientTransform="translate(151.482 153.393) rotate(-135) scale(432.042 81.0078)">
<stop stop-color="#1B1464" stop-opacity="0.5"/>
<stop offset="0.06" stop-color="#142B5E" stop-opacity="0.37"/>
<stop offset="0.16" stop-color="#0B4A58" stop-opacity="0.2"/>
<stop offset="0.3" stop-color="#056053" stop-opacity="0.09"/>
<stop offset="0.48" stop-color="#016C50" stop-opacity="0.02"/>
<stop offset="1" stop-color="#017050" stop-opacity="0"/>
</radialGradient>
</defs>
</svg>
