<svg width="977" height="549" viewBox="0 0 977 549" fill="none" xmlns="http://www.w3.org/2000/svg">
<g clip-path="url(#clip0_439_124)">
<rect width="977" height="549" fill="white"/>
<path d="M0.000541687 493C-3.16368 449.86 -36.1768 427.78 0.000297546 430C-0.0392432 421.128 54.5 416.5 122 477.5L172.5 489.5L240.5 477.5C280 432.5 326 441 352 467C328.5 463.5 375.5 472.5 352 467C382.5 443 394.416 434.855 422 455.5C442.97 448.401 458.768 446.354 482 436C576.147 369.694 619.93 373.374 675.5 482L707.5 483.167L735 450.5L769.5 471.5L813.5 460L831 416.5C859 346 856 373.5 865 434C881.496 444.126 892.444 442.253 914 430C931.027 441.995 939.655 446.102 954 450.5C989.682 441.389 989.263 455.945 977.001 493V549H0.000541687V493Z" fill="#FBAD19"/>
<path d="M17.3114 408.26C30.0005 400.164 47.5074 398.525 60.2323 402.543C73.2576 406.367 82.7407 413.097 92.2502 420.623C93.4904 421.638 94.7759 422.642 96.114 423.631C133.265 453.363 205.118 466.476 242.308 439.843C244.524 438.402 246.657 436.856 248.711 435.197C264.397 421.561 290.757 411.934 313.593 418.134C324.726 420.668 334.288 425.354 342.144 428.908C345.982 430.666 349.664 432.087 351.202 432.339C351.557 432.409 351.752 432.417 351.705 432.421C351.664 432.426 351.377 432.44 350.969 432.554C350.106 432.756 349.197 433.471 349.238 433.493C350.133 432.579 351.02 431.695 351.901 430.841C353.532 429.261 354.893 428.51 355.701 427.784C362.449 421.215 379.942 408.726 395.34 410.106C407.086 410.337 418.167 416.531 424.707 418.799C431.468 421.135 434.375 420.721 439.986 418.345C443.842 416.567 447.833 414.475 450.976 412.832C457.125 409.603 463.437 406.007 466.362 405.334C468.613 404.091 469.487 402.687 470.065 402.307C470.072 402.303 470.079 402.3 470.087 402.297C472.004 401.042 477.075 398.787 478.194 398.12C478.348 398.028 477.089 398.084 479.795 396.758C480.038 396.64 480 397.099 482.23 395.861C482.811 395.525 490.028 390.881 492.237 389.683C499.356 385.634 517.434 377.291 526.972 373.662C528.415 373.088 529.168 372.553 530.704 371.965C531.499 371.66 532.789 371.444 533.035 371.353C534.102 370.934 538.51 368.231 537.514 370.899C542.434 369.087 540.776 368.907 540.733 368.415C546.22 366.581 549.205 366.893 550.402 365.434C577.392 357.875 612.943 358.467 638.328 378.556C638.443 378.418 638.558 378.281 638.672 378.144C645.524 384.326 648.548 385.942 651.262 390.263C653.545 392.383 655.894 394.808 657.904 397.013C664.774 406.008 669.836 414.939 674.421 424.712C678.068 432.545 682.188 440.033 686.476 445.274C688.644 447.971 690.901 449.77 691.729 450.108C692.14 450.295 691.982 450.168 691.66 450.17C691.345 450.156 691.174 450.279 691.609 450.078C693.776 449.344 699.673 442.615 704.525 435.426C707.148 431.733 709.711 427.786 713.592 423.148C715.776 420.742 717.616 418.187 723.091 414.961C725.926 413.398 730.48 411.643 736.122 412.397C738.744 412.732 741.454 413.737 743.416 414.872C745.267 415.922 746.815 417.168 748.11 418.447C761.945 433.289 783.802 443.323 786.704 437.546C787.539 436.824 788.048 437.035 789.653 434.919C791.444 432.555 793.417 427.332 794.918 421.826C795.117 421.122 795.333 420.345 795.559 419.496C797.156 413.366 799.511 405.975 801.482 400.122C802.02 398.51 802.179 397.303 802.24 397.126C802.604 396.092 802.982 396.166 803.338 395.183C803.754 394.035 804.021 392.466 804.579 391.035C806.536 385.917 809.083 380.073 809.369 379.518C810.939 376.271 811.664 375.759 811.791 375.501C813.624 372.083 812.674 373.208 813.173 372.319C815.939 367.69 818.26 365.12 822.827 358.377C822.924 358.741 823.025 359.104 823.127 359.466C827.412 354.903 824.066 357.43 824.822 356.368C824.98 356.171 827.458 353.496 830.686 351.077C833.979 348.496 838.353 346.487 839.014 346.262C843.669 344.493 844.109 345.13 844.489 344.981C844.981 344.889 848.51 343.863 853.079 344.095C857.614 344.24 862.617 345.98 865.329 347.693C871.519 351.86 863.606 348.1 865.113 349.2C865.539 349.24 871.485 353.433 871.753 354.313C872.375 355.17 867.83 351.322 867.738 351.551C867.737 351.588 869.753 353.238 871.145 354.852C872.569 356.457 873.562 358.009 872.849 357.498C872.218 357.105 869.982 354.571 866.789 352.322C863.626 349.985 859.36 348.371 857.77 348.117C857.256 348.017 858.086 348.734 857.637 348.636C857.029 348.253 846.962 346.617 839.734 350.459C832.442 353.875 828.275 358.918 827.831 359.208C828.581 358.1 829.255 357.123 830.208 355.969C828.745 357.254 827.645 358.339 826.411 359.662C827.951 357.699 829.614 355.825 831.622 353.984C826.786 355.126 821.37 364.88 822.112 365.682C822.274 366.123 826.95 361.709 823.989 366.733C824.526 366.168 825.201 365.442 825.814 364.833C826.787 363.298 827.764 361.865 828.983 360.319C828.032 361.157 827.085 362.066 826.265 362.883C826.447 362.463 826.633 362.047 826.823 361.635C829.045 358.776 831.48 356.108 834.683 353.617C836.493 352.508 836.329 353.08 837.585 352.419C846.191 348.428 848.852 349.374 849.57 348.923C850.428 348.885 850.607 347.845 857.5 349.358C859.385 350.056 861.109 350.955 862.661 351.979C862.409 350.913 867.646 353.995 871.922 358.377C871.22 358.005 870.509 357.657 869.796 357.339C877.103 363.474 880.656 378.796 880.626 374.306C881.124 376.044 881.51 377.708 881.844 379.443C882.457 380.796 883.02 382.158 883.543 383.574C883.9 385.555 884.171 387.6 884.342 389.593C884.212 389.615 884.082 389.637 883.952 389.659C883.794 388.079 883.573 386.466 883.298 384.892C883.109 386.142 882.887 387.397 882.628 388.613C882.829 389.751 883.001 390.904 883.142 392.069C883.126 387.144 884.308 393.54 884.793 395.149C884.948 397.645 884.659 399.584 884.371 401.052C884.183 401.883 884.024 402.496 883.988 402.941C883.89 403.481 885.053 409.241 883.736 406.997C883.888 409.857 884.275 412.783 884.916 414.712C884.986 415.452 885.125 416.147 885.19 416.501C884.221 415.957 884.738 418.559 883.609 416.945C883.099 415.984 882.965 414.905 882.928 414.04C882.911 413.256 882.967 412.606 882.874 411.677C882.738 410.229 882.296 409.138 882.264 407.383C882.238 405.158 882.311 403.189 882.465 400.913C883.126 387.927 881.262 376.303 873.831 364.297C872.007 361.492 869.669 359.175 867.876 357.544C865.751 355.693 868.831 357.572 865.877 355.392C862.592 353.213 861.481 353.344 860.516 352.875C859.908 352.602 858.026 351.451 855.971 351.032C851.806 350.045 846.331 350.718 842.644 352.309C838.99 353.803 836.745 355.604 836.31 355.878C835.697 356.25 831.625 359.19 828.419 362.851C825.294 366.283 822.815 370.039 822.547 370.392C822.315 370.716 821.537 369.371 820.892 373.183C820.333 374.18 819.779 375.209 819.232 376.272C819.091 375.976 818.951 375.678 818.813 375.381C816.601 381.709 817.013 379.66 814.508 385.331C810.241 395.241 805.862 408.728 802.752 421.286C801.585 425.956 800.109 430.238 798.452 433.727C797.161 436.345 796.916 437.49 795.025 440.06C794.152 441.235 792.238 442.914 790.756 443.845C789.288 444.807 788.195 445.331 789.116 445.63C783.788 446.7 782.792 448.048 779.701 446.705C779.291 446.838 778.893 446.963 778.468 447.075C775.071 445.655 773.791 445.959 769.712 444.344C767.959 443.572 770.297 443.837 766.425 442.895C765.773 442.477 765.172 442.069 764.541 441.631C764.791 441.548 765.041 441.464 765.288 441.378C761.418 439.332 761.24 438.963 761.273 439.887C759.526 438.608 757.813 437.247 756.122 435.813C755.754 435.839 755.394 435.869 755.03 435.895C755.22 436.17 765.883 445.208 777.59 447.412C789.472 450.237 796.327 439.938 797.715 436.998C799.974 433.846 802.365 427.751 803.757 421.536C805.178 415.452 806.599 410.095 807.67 406.804C808.558 404.106 809.487 402.924 810.933 398.912C812.335 395.006 813.891 389.7 814.816 387.524C816.216 383.973 821.04 373.778 825.605 367.845C827.888 364.755 829.73 362.908 829.89 362.876C830.026 362.948 828.121 364.895 824.647 370.359C825.286 369.878 825.924 369.42 826.558 368.985C832.303 360.257 830.068 363.269 837.4 357.428C839.065 356.273 842.064 354.378 845.215 353.514C848.261 352.625 850.999 352.834 850.677 353.431C842.03 353.904 835.357 359.113 831.358 363.435C830.756 363.955 826.939 369.514 825.007 372.476C823.289 375.044 823.28 372.565 821.184 379.126C817.768 382.961 817.713 386.065 817.301 387.291C816.604 389.447 815.909 389.501 815.043 391.46C814.089 393.64 813.883 395.409 813.768 395.726C812.496 398.639 807.491 415.361 807.23 415.845C807.3 415.163 807.371 414.486 807.443 413.814C806.124 417.95 806.984 417.275 806.759 418.413C806.536 419.257 806.314 420.111 806.094 420.975C806.052 420.6 806.011 420.226 805.97 419.853C805.727 420.825 805.582 421.49 805.493 421.968C805.117 423.851 805.886 422.6 804.232 427.9C802.911 432.032 800.558 435.638 800.401 435.982C800.355 436.095 801.266 435.072 800.519 436.614C799.367 439.154 796.552 442.822 795.847 442.807C795.064 443.771 795.453 443.986 795.347 444.116C795.109 444.388 792.839 446.811 789.855 448.219C786.927 449.718 783.306 450.003 782.198 449.994C776.009 450.166 768.642 447.236 762.046 443.354C761.373 442.959 761.951 442.969 761.275 442.567C760.146 441.971 754.486 438.588 753.677 437.943C751.616 436.544 746.721 432.143 745.867 431.504C745.744 431.419 747.115 433.174 745.127 431.556C742.947 429.748 744.431 430.384 744.32 430.278C742.793 428.778 741.49 427.528 740.26 426.365C738.56 424.674 735.936 423.343 733.219 423.498C730.482 423.655 728.701 424.78 727.311 425.733C725.757 426.796 723.503 428.469 722.208 430.169C722.07 430.35 722.644 430.247 722.51 430.43C720.698 432.828 718.543 434.663 717.783 435.622C715.915 438.025 717.293 436.979 717.204 437.107C716.037 438.76 714.368 440.84 712.655 443.282C705.385 453.413 697.357 464.414 687.683 460.533C686.41 460.03 685.186 458.81 685.003 458.68C684.464 458.302 684.239 458.721 682.722 457.471C679.294 454.524 676.545 451.033 673.824 446.975C673.299 446.182 673.397 445.619 672.999 444.978C672.292 443.85 670.686 441.678 669.39 439.526C668.043 437.295 667.114 435.329 667.647 434.994C666.118 433.172 665.146 431.321 664.355 429.458C663.446 427.325 662.745 425.319 661.687 423.305C657.089 414.145 647.612 400.805 639.957 393.606C638.359 392.034 637.797 391.116 636.884 390.295C635.473 388.662 624.818 381.502 624.125 381.341C623.01 380.658 624.493 379.594 617.768 377.798C614.095 376.294 614.725 375.998 613.974 375.657C607.976 373.08 601.566 373.193 602.967 372.256C595.561 371.009 590.765 371.493 587.812 370.239C587.831 370.788 584.358 370.952 580.224 370.921C584.43 369.968 583.938 368.982 594.404 370.05C594.569 370.071 594.212 370.428 594.376 370.448C595.859 370.63 598.988 370.856 601.509 371.389C604.025 371.928 602.568 371.904 603.574 372.117C604.492 372.323 604.549 371.944 605.88 372.274C610.163 373.348 613.952 374.639 616.27 375.595C617.748 376.199 619.244 377.245 620.363 377.792C624.683 379.715 633.428 385.042 637.844 389.126C638.775 389.958 638.146 389.863 640.142 391.75C640.359 391.963 641.55 392.527 643.255 394.147C644.947 395.762 646.044 397.27 647.09 398.408C647.954 399.363 647.898 398.738 649.594 400.762C651.46 401.998 664.273 422.994 664.298 424.288C665.085 426.023 665.048 427.063 665.611 428.103C665.679 428.227 665.962 428.321 666.244 428.567C666.376 428.679 666.507 428.824 666.612 429.02C671.03 438.291 684.554 461.079 691.758 459.091C697.274 459.253 704.479 451.004 709.974 443.13C712.895 439.061 715.614 434.844 719.137 430.354C720.903 428.195 722.766 425.795 726.116 423.461C727.709 422.411 730.242 420.979 733.765 421.054C735.476 421.101 737.136 421.552 738.604 422.305C739.902 422.972 740.953 423.789 741.896 424.714C745.412 428.155 749.094 431.463 752.993 434.547C753.397 434.766 753.8 434.98 754.202 435.19C752.193 433.623 750.25 431.996 748.337 430.3C748.47 430.125 748.603 429.95 748.736 429.774C746.188 427.449 746.193 428.117 746.047 428.419C745.188 427.446 744.347 426.466 743.517 425.474C743.226 425.425 742.721 425.082 742.076 424.533C740.838 423.445 739.454 422.178 736.507 421.281C733.745 420.421 730.281 420.993 728.2 421.997C723.97 424.036 722.097 426.369 720.591 427.949C718.233 430.609 716.27 433.874 715.308 435.162C713.249 437.962 712.957 437.577 712.787 437.801C712.491 438.193 710.177 442.244 708.233 444.826C705.341 448.553 704.521 448.692 700.875 453.324C698.114 455.787 695.144 457.704 692.911 458.097C690.794 458.538 688.442 457.936 685.564 455.798C687.014 456.173 681.728 452.656 679.613 449.658C675.087 443.887 670.948 436.308 667.165 428.133C659.933 412.323 649.368 396.52 636.326 385.963C633.676 383.796 631.818 382.04 630.256 381.023C629.421 380.484 628.766 380.611 627.582 379.815C627.371 379.682 627.459 379.184 625.174 377.819C619.609 373.971 603.601 369.723 599.603 368.628C577.158 365.067 555.441 370.227 535.846 377.44C535.288 377.453 534.73 377.47 534.171 377.488C530.692 379.623 516.067 385.245 509.335 388.706C497.331 394.593 482.826 403.079 472.905 408.827C470.751 410.07 468.896 410.841 466.833 412.03C465.957 412.537 465.045 413.445 464.157 413.955C457.924 417.524 450.279 421.777 443.161 425.057C439.108 426.92 435.311 427.732 432.022 427.731C422.48 428.483 412.205 418.555 394.551 417.607C376.563 417.688 364.618 429.035 354.736 438.829C354.628 438.941 354.524 439.041 354.426 439.13C353.718 439.748 353.34 439.918 352.646 440.062C351.965 440.198 350.731 440.168 349.216 439.833C346.105 439.162 342.198 437.497 338.177 435.703C330.088 432.069 321.142 427.896 311.142 425.785C290.789 420.739 268.566 429.073 253.957 441.652C213.317 474.261 151.017 465.886 105.838 440.036C104.821 439.455 105.063 439.15 104.28 438.693C100.286 436.413 92.1695 431.48 87.0245 427.648C86.0538 426.937 85.1696 426.305 84.3998 425.76C80.0854 422.564 72.6439 417.747 70.5849 417.518C76.2973 420.601 81.6006 424.218 86.6582 428.14C96.0601 435.48 106.58 441.818 117.446 447.132C118.589 447.691 118.585 448.087 118.724 448.16C121.322 449.48 119.849 448.287 123.715 449.942C124.955 450.6 136.752 456.255 135.705 454.573C138.377 456.363 159.616 462.168 163.888 462.316C165.166 462.477 164.322 461.991 164.576 462.015C165.679 462.113 166.101 462.656 167.078 462.81C169.675 463.256 176.37 463.55 177.634 463.611C180.518 463.896 189.268 464.532 193.097 464.232C196.615 464.003 195.908 463.539 198.932 463.275C201.302 463.026 198.753 463.731 204.062 463.272C206.713 463.114 215.717 461.158 217.838 460.533C219.998 459.999 222.457 459.641 225.374 458.671C229.606 457.384 238.335 453.457 242.104 451.115C242.333 450.981 242.706 450.331 243.271 450.013C244.441 449.35 244.335 449.963 245.235 449.478C245.737 449.215 250.614 446.219 254.832 442.728C258.821 439.445 262.949 436.742 264.26 435.945C266.329 434.662 267.723 433.575 268.895 432.956C269.812 432.478 270.126 432.762 271.117 432.278C271.458 432.111 273.787 430.582 276.618 429.52C279.073 428.31 289.518 426.243 290.785 426.338C291.578 426.253 290.683 426.041 293.023 425.839C295.2 425.676 296.62 426.028 297.824 426.033C300.676 426.05 303.847 425.986 306.793 426.436C315.213 427.925 314.504 428.616 315.022 428.683C316.346 429.095 316.986 428.863 317.422 428.986C319.29 429.493 323.673 430.994 325.201 431.609C327.141 432.362 327.772 433.056 329.756 433.913C331.203 434.533 334.334 435.524 337.5 436.93C344.613 440.317 353.094 442.753 354.617 440.658C355.225 440.242 355.618 440.103 355.907 439.966C356.067 439.854 356.206 439.747 356.346 439.607C359.216 436.754 360.516 435.049 361.415 434.234C367.138 428.682 380.715 420.309 389.958 419.898C391.662 419.669 396.641 419.286 401.782 420.418C406.941 421.475 411.87 423.585 415.118 424.965C415.865 425.285 415.057 425.252 415.902 425.558C417.904 426.28 417.929 425.663 418.887 426.069C419.346 426.262 420.28 426.985 421.578 427.479C428.287 430.058 432.431 429.569 435.281 429.202C438.118 428.813 440.981 427.9 443.869 426.553C471.105 412.895 498.471 394.798 526.371 383.443C529.841 382.002 534.051 379.946 539.56 378.38C539.784 378.492 540.008 378.603 540.231 378.715C540.362 378.484 540.494 378.254 540.626 378.023C546.743 375.883 549.029 374.947 555.561 373.53C556.129 373.408 557.991 373.806 558.85 372.583C565.519 371.951 561.772 371.938 566.644 371.022C571.552 370.17 576.417 369.91 581.265 369.814C583.912 370.019 572.862 371.46 572.215 371.675C571.075 371.802 569.821 371.457 568.712 371.59C565.402 371.981 562.406 372.982 561.589 372.689C557.529 374.014 562.654 372.708 562.217 373.243C559.411 373.614 556.625 374.071 553.862 374.599C552.776 376.193 537.553 379.056 538.958 379.864C537.732 380.061 536.506 380.27 535.279 380.491C530.766 383.681 527.508 383.919 520.826 386.411C521.366 386.365 521.907 386.321 522.448 386.278C522.336 386.391 516.752 389.229 518.477 387.616C513.069 391.21 512.613 389.604 507.986 393.22C505.016 394.887 506.537 393.312 501.11 396.128C497.931 397.788 494.124 400.242 490.659 402.177C489.854 402.625 489.295 402.473 488.573 402.872C487.85 403.273 487.69 403.815 486.826 404.307C485.047 405.323 482.608 406.38 481.487 407.046C480.49 407.637 479.244 408.746 476.89 410.155C468.588 415.138 470.921 413.23 469.492 413.855C467.966 414.524 467.294 415.67 464.458 417.202C464.165 417.36 464.707 416.58 463.78 417.127C463.038 417.564 462.86 418.181 460.482 419.619C459.69 420.107 449.69 425.807 444.629 428.161C443.482 428.711 442.648 429.048 442.244 429.209C438.902 430.82 431.259 431.459 427.78 430.586C426.418 430.369 424.866 430.374 423.373 429.927C418.438 428.643 410.43 424.166 402.309 422.144C395.139 419.42 380.748 422.126 377.893 425.047C368.869 430.05 367.257 431.518 366.545 431.877C364.941 433.153 364.519 434.035 362.688 435.706C360.714 437.525 359.063 439.153 357.133 441.156C351.533 448.787 333.865 435.913 318.493 431.196C302.316 425.218 283.25 427.259 270.633 434.31C265.353 437.028 260.515 440.334 255.924 444.072C208.441 481.443 136.412 466.907 88.4128 432.614C88.1658 432.658 87.9186 432.701 87.671 432.744C93.9312 437.384 101.599 442.473 108.403 446.131C117.434 451.181 131.872 456.184 138.737 459.519C135.771 458.707 131.216 456.563 131.089 457.176C136.237 459.116 141.478 460.83 146.781 462.294C146.697 461.972 146.614 461.649 146.531 461.327C152.066 462.738 157.779 464.053 163.429 464.939C164.415 465.093 163.76 464.721 164.616 464.855C165.574 465.004 164.884 465.167 165.063 465.197C167.486 465.569 168.251 465.383 168.545 465.429C169.3 465.536 168.678 465.726 170.867 466.062C174.924 466.673 177.913 466.169 176.862 467.241C178.188 467.344 179.505 467.429 180.831 467.498C181.192 467.205 181.55 466.911 181.905 466.616C190.01 468.184 193.703 465.75 198.254 467.208C199.717 466.836 201.164 466.439 202.593 466.018C203.447 466.24 204.317 466.452 205.184 466.656C205.312 466.37 205.439 466.085 205.565 465.8C213.467 464.986 221.639 462.74 228.726 460.241C233.657 458.461 234.853 458.048 239.032 456.051C248.153 451.239 239.375 456.608 247.155 452.829C246.601 452.783 246.049 452.732 245.499 452.675C246.66 451.855 247.801 451.008 248.917 450.139C249.885 449.827 250.851 449.496 251.816 449.147C253.626 446.787 255.395 445.576 256.588 444.89C257.308 444.458 257.819 444.234 258.002 444.09C258.469 443.76 259.178 441.956 264.411 439.322C261.809 439.637 268.048 436.994 268.579 436.785C268.982 436.492 274.701 433.258 277.301 432.366C279.272 431.576 283.649 430.428 286.793 429.82C289.535 429.282 289.19 428.999 289.399 428.951C292.873 428.451 290.738 429.019 293.214 428.792C295.733 428.603 297.638 428.299 298.197 428.332C298.47 428.352 297.554 428.698 298.802 428.752C302.105 428.847 308.129 429.313 311.773 430.256C313.062 430.563 314.611 431.295 316.002 431.725C318.14 432.388 319.264 432.358 320.477 432.798C320.913 432.957 323.405 434.517 326.662 435.789C327.296 436.034 329.617 435.579 331.226 438.359C331.515 438.198 331.803 438.038 332.091 437.877C342.754 442.022 345.02 445.167 349.647 444.064C352.886 444.56 353.169 444.395 353.054 444.716C352.901 444.976 352.005 445.244 352.354 445.28C352.839 445.383 354.744 444.765 354.903 444.658C355.257 444.549 355.287 444.796 355.674 444.621C357.05 443.959 357.881 443.145 358.492 442.475C361.626 439.093 359.546 440.712 361.36 438.625C366.999 432.492 373.094 429.388 361.856 438.671C361.948 438.768 362.04 438.864 362.131 438.961C364.583 436.266 371.69 430.808 369.755 433.183C368.609 434.331 361.115 441.014 359.32 443.279C358.827 443.843 358.77 443.995 359.483 443.436C359.943 443.051 360.684 442.395 361.747 441.472C363.731 439.787 364.477 438.311 368.63 436.045C371.049 434.164 370.696 432.832 374.448 430.895C373.609 430.938 372.841 430.948 372.012 431.013C376.462 427.082 383.755 424.494 388.417 423.552C389.88 423.013 395.959 420.91 394.516 422.966C397.514 422.293 409.424 426.363 411.282 427.245C411.76 427.366 412.941 426.817 419.519 429.81C419.937 430.11 420.357 430.405 420.78 430.694C414.461 428.845 425.276 433.056 422.005 432.997C421.089 432.303 416.243 430.144 415.525 429.562C414.306 428.624 418.592 429.864 413.322 427.807C409.365 427.999 419.076 431.201 417.041 432.083C424.199 434.001 424.742 434.475 426.368 434.895C433.327 436.162 437.93 435.234 444.201 433.018C444.894 432.537 442.393 433.451 439.501 434.047C436.631 434.694 433.257 434.814 432.552 434.875C437.743 433.395 428.836 434.098 424.918 433.513C424.679 433.092 424.449 432.669 424.229 432.245C428.954 433.698 433.831 433.925 438.437 432.504C438.773 432.561 439.116 432.611 439.465 432.655C438.421 433.143 437.458 433.557 436.349 433.936C440.468 433.42 437.804 433.163 443.34 432.213C443.351 431.778 443.358 431.344 443.361 430.911C444.063 430.647 444.78 430.354 445.513 430.029C449.653 428.196 454.092 425.942 458.189 423.802C460.411 421.676 469.819 416.631 468.637 418.504C472.447 416.403 467.498 418.605 470.931 416.342C472.473 415.33 475.375 413.627 476.287 413.427C476.436 414.482 472.065 417.135 470.991 418.535C471.924 418.218 492.564 405.67 491.288 407.776C493.055 406.96 491.993 406.859 494.957 405.066C503.312 399.962 517.341 394.278 523.986 389.835C515.183 392.851 513.09 394.896 506.795 398.096C502.662 400.009 478.701 413.549 483.55 409.663C482.728 410.281 481.912 410.897 481.103 411.51C480.061 411.746 479.049 411.965 477.994 412.209C480.449 410.753 482.943 409.283 485.448 407.823C486.194 407.759 486.943 407.696 487.693 407.632C487.861 407.284 488.03 406.936 488.2 406.587C489.24 405.957 490.288 405.326 491.343 404.694C491.169 405.094 490.996 405.494 490.824 405.894C492.516 405.011 494.134 404.178 495.813 403.321C495.199 403.248 494.586 403.175 493.973 403.103C501.738 398.812 499.178 400.453 503.839 398.767C507.134 397.155 501.307 399.349 508.137 395.691C516.165 391.531 511.258 395.022 521.782 389.931C521.863 389.7 521.944 389.469 522.026 389.238C524.452 388.353 526.884 387.503 529.336 386.688C528.937 386.613 528.537 386.539 528.137 386.466C533.071 384.472 539.862 381.565 541.817 381.839C536.579 383.217 537.168 384.671 538.572 384.442C541.058 382.828 582.617 372.65 591.215 375.552C601.818 376.428 609.506 379.057 618.574 382.618C613.201 378.092 589.937 374.073 585.522 374.45C585.092 374.411 585.201 372.991 582.393 374.593C573.336 374.479 562.667 376.565 551.893 379.546C552.117 379.069 552.344 378.592 552.573 378.116C559.434 377.1 565.444 374.197 564.828 375.879C566.175 375.636 567.547 375.41 568.919 375.209C568.88 374.945 568.841 374.68 568.802 374.415C570.887 374.11 572.95 373.862 575.05 373.67C575.074 373.937 575.099 374.203 575.123 374.469C576.854 374.312 578.582 374.196 580.306 374.125C580.475 373.852 580.645 373.578 580.817 373.305C586.029 373.152 603.987 374.168 595.965 374.676C598.392 375.005 600.812 375.444 603.207 376.002C603.244 375.81 603.28 375.617 603.317 375.425C604.362 375.641 605.4 375.878 606.431 376.137C606.047 376.214 605.664 376.294 605.283 376.377C610.084 377.298 614.044 379.85 617.174 380.623C615.304 379.618 613.425 378.71 611.472 377.871C615.215 379.351 622.14 382.282 622.684 382.666C624.459 383.667 625.216 384.584 627.037 385.795C628.655 386.893 628.601 386.508 628.898 386.723C637.432 393.492 632.813 392.19 637.925 394.065C638.135 394.627 638.341 395.191 638.541 395.756C639.211 396.098 639.877 396.449 640.51 396.777C642.632 398.968 644.783 401.429 646.718 403.87C646.358 402.893 645.899 401.817 645.454 400.789C648.705 404.384 649.338 406.487 649.632 406.88C650.371 407.943 651.059 408.193 651.297 408.524C661.702 424.487 655.267 415.266 658.472 423.996C660.569 426.67 659.552 423.383 659.875 422.668C661.305 425.85 662.085 427.318 663.349 429.932C663.7 430.664 664.087 431.47 664.533 432.402C665.059 433.501 665.325 434.784 665.654 435.437C665.942 436.013 667.137 437.541 667.941 439.009C669.217 441.342 670.687 444.337 672.651 447.3C674.177 449.693 679.661 456.92 684.42 459.849C686.337 461.043 685.799 460.997 686.328 461.285C686.579 461.416 688.27 461.791 689.596 462.025C700.808 463.967 710.144 448.604 718.278 437.416C720.395 434.503 722.456 431.544 725.322 428.655C726.834 427.224 728.355 425.749 731.177 424.848C734.064 423.832 737.76 425.265 739.473 427.158C741.697 429.316 743.931 431.383 746.223 433.408C747.812 434.802 746.795 434.266 747.486 434.873C747.728 435.072 748.315 435.012 750.72 437.191C751.608 437.982 750.337 437.387 751.243 438.123C751.696 438.477 752.086 438.32 754.804 440.201C759.716 443.541 762.237 445.463 762.703 445.73C763.585 446.186 763.47 445.746 764.643 446.355C770.302 449.228 775.328 450.883 780.559 451.207C781.768 451.311 786.623 451.366 790.574 449.345C794.584 447.474 797.472 443.928 797.806 443.582C799.207 442.046 798.567 444.061 800.198 441.779C800.489 441.049 800.765 440.295 801.028 439.516C800.247 440.549 799.494 441.428 798.636 442.341C800.84 439.846 802.375 436.182 803.393 433.823C803.613 433.409 805.518 429.433 806.131 427.19C805.963 428.177 805.783 429.137 805.593 430.07C805.81 429.793 806.026 429.51 806.242 429.222C806.881 427.067 807.457 424.926 808.019 422.597C808.651 419.976 809.325 417.434 810.004 415.022C810.48 413.34 810.57 414.023 811.095 412.219C814.186 402.14 812.298 404.191 817.759 395.371C816.218 398.582 812.719 410.387 812.193 412.227C811.745 413.557 808.784 417.597 811.019 416.407C809.03 423.873 809.311 420.54 808.563 422.732C808.342 423.384 808.038 424.562 807.505 426.559C807.77 426.454 808.036 426.346 808.302 426.236C807.542 429.365 806.834 431.619 805.746 433.254C806.655 434.288 801.477 444.103 796.965 447.734C791.07 453.792 780.676 455.13 772.607 452.411C769.78 451.555 768.435 450.46 768.097 450.332C767.618 450.137 766.062 449.855 765.098 449.381C761.328 447.847 751.518 440.333 748.58 439.068C758.008 446.545 768.782 453.526 780.808 454.279C793.237 455.364 802.848 444.885 806.972 433.775C806.088 435.187 808.474 429.314 809.884 423.061C811.219 417.418 812.699 412.306 812.912 411.629C813.268 410.498 813.331 411.556 813.451 411.225C814.336 408.76 814.481 406.582 814.721 405.83C814.914 405.23 815.551 404.027 816.261 401.921C816.392 401.535 816.184 401.345 816.325 400.933C817.227 398.32 818.3 395.426 819.35 392.808C819.417 392.646 820.03 392.132 820.304 391.471C820.598 390.758 820.544 389.922 820.618 389.746C821.545 387.547 823.423 384.083 824.467 382.077C824.814 381.4 824.327 381.74 824.721 380.99C825.928 378.75 826.05 379.607 827.558 376.746C828.089 375.781 827.625 375.709 828.88 373.861C829.756 372.603 830.274 373.174 830.428 372.991C830.563 372.77 833.224 368.206 834.771 367.327C833.232 370.938 837.531 364.431 837.024 364.372C838.689 363.024 840.422 361.868 842.255 360.957C842.776 360.496 843.403 360.014 843.993 359.596C852.056 356.728 858.441 358.591 864.067 364.473C864.512 364.659 868.302 370.382 867.847 370.284C865.48 366.949 862.754 364.085 860.971 362.053C858.877 361.257 857.933 360.876 856.657 360.268C855.407 359.744 853.746 358.817 850.284 359.043C848 359.299 847.923 359.785 847.68 359.817C838.624 361.812 830.446 374.472 826.88 379.245C826.249 380.839 829.386 375.606 828.357 377.737C826.93 378.439 815.723 407.495 818.394 397.853C818.042 398.9 817.763 399.769 817.45 400.755C818.058 401.995 816.208 406.908 815.449 406.044C815.501 406.55 815.555 407.059 815.609 407.571C815.495 408.514 815.256 409.603 814.853 411.154C814.335 413.133 813.057 417.566 811.574 423.482C810.027 429.762 807.414 436.957 804.047 442.2C800.772 447.497 796.864 450.403 796.354 450.83C796.459 451.046 796.564 451.263 796.667 451.481C805.698 444.8 809.49 434.092 812.226 423.644C813.639 418.057 815.227 412.618 817.205 407.135C816.846 407.531 816.488 407.933 816.13 408.34C818.5 401.753 821.087 395.418 824.177 389.196C821.523 395.993 818.103 407.057 815.72 414.432C815.284 415.759 815.263 414.695 815.142 414.987C814.835 415.728 815.119 416.666 814.415 419.519C814.16 420.559 813.701 422.175 813.217 423.89C812.37 426.945 811.241 429.942 811.096 430.383C810.724 431.633 810.039 435.297 809.015 437.464C807.7 440.228 808.233 438.205 807.963 438.753C806.798 441.044 805.778 443.123 804.609 444.763C802.938 447.372 798.07 451.3 796.688 453.212C798.57 451.988 800.31 450.498 801.813 448.928C793.66 458.412 781.833 458.62 771.006 456.016C768.066 456.376 777.523 459.028 769.412 457.109C770.861 457.585 772.301 457.989 773.807 458.325C774.213 458.164 774.611 457.997 775.003 457.824C777.54 458.529 780.148 458.994 782.906 459.094C782.125 458.895 781.351 458.665 780.603 458.409C790.385 459.074 798.726 452.748 801.673 451.18C801.617 450.831 801.544 450.497 801.473 450.158C808.251 444.15 811.12 431.775 811.814 434.587C811.877 434.19 811.937 433.79 811.995 433.386C813.942 428.831 812.594 430.61 813.097 428.799C813.175 428.518 813.961 426.147 814.581 424.23C815.166 422.471 815.663 421.356 815.391 423.376C817.992 414.79 815.853 417.21 816.435 414.82C818.671 409.411 820.885 399.574 820.63 403.964C820.942 403.179 821.254 402.409 821.567 401.652C821.553 398.901 823.592 396.436 824.968 393.997C825.349 393.119 825.794 392.114 826.208 391.213C826.191 390.471 826.177 389.736 826.165 389.008C831.522 381.168 826.703 382.052 831.753 379.927C831.6 380.59 831.449 381.265 831.3 381.952C830.586 383.442 830.037 384.708 829.408 386.196C832.256 380.648 835.553 375.323 839.538 371.106C845.034 366.763 848.274 363.624 853.535 365.5C854.056 365.556 854.59 365.66 855.146 365.824C854.714 366.038 854.064 365.959 853.937 366.037C853.802 366.141 854.203 366.179 855.8 367.324C855.757 367.898 853.633 366.774 852.763 366.262C852.514 366.097 854.775 366.195 852.353 365.646C851.532 365.54 851.855 365.75 851.771 365.87C851.66 366.064 851.316 365.809 848.771 366.334C849 366.405 849.216 366.485 849.421 366.574C848.919 366.685 848.331 366.875 847.799 367.096C847.201 367.013 846.504 367.016 845.813 367.063C844.679 368.314 844.25 369.144 841.253 372.005C841.928 371.042 840.319 371.729 838.946 373.409C839.117 373.551 839.289 373.693 839.461 373.835C836.246 378.214 836.897 376.261 834.805 380.478C834.419 380.774 834.03 381.082 833.64 381.402C832.812 384.01 829.261 392.819 829.012 390.813C828.815 393.784 826.316 398.799 824.739 400.716C824.885 400.962 825.042 401.178 825.195 401.406C824.861 402.464 824.529 403.548 824.198 404.657C823.864 405.225 823.529 405.803 823.195 406.39C823.064 407.214 822.906 408.137 822.805 408.9C822.449 409.29 822.093 409.685 821.736 410.086C821.605 411.408 821.478 412.755 821.354 414.128C820.954 414.868 820.547 415.645 820.154 416.389C820.506 416.537 819.164 421.92 818.229 425.138C818.035 425.803 817.852 426.352 817.7 426.732C817.637 427.491 817.569 428.241 817.493 428.983C817.18 429.272 816.875 429.525 816.551 429.835C816.554 430.434 816.552 431.029 816.546 431.62C815.975 432.808 815.403 433.916 814.759 435.12C813.824 440.457 812.658 440.328 812.176 441.388C811.324 443.541 807.263 450.795 806.042 451.808C805.026 452.89 804.297 453.073 803.389 453.889C795.768 460.221 792.115 460.319 791.427 460.989C790.555 461.458 791.693 461.474 789.697 462.079C787.52 462.686 785.911 462.526 783.994 462.689C782.37 462.874 777.412 462.918 773.156 461.99C768.861 461.139 765.249 459.707 764.846 459.525C763.751 458.985 767.001 458.541 763.275 457.391C762.671 458.239 755.848 453.569 758.624 456.502C755.687 454.804 752.865 452.912 750.225 450.955C749.915 452.059 746.906 449.172 743.461 446.48C740.045 443.894 733.94 438.864 731.011 435.693C731.032 435.677 731.379 435.883 731.784 435.954C732.19 436.031 732.466 435.952 732.443 435.77C732.961 436.057 733.706 436.187 734.162 436.21C734.604 436.247 734.811 436.26 734.834 436.395C733.805 436.645 730.367 440.73 727.945 444.291C725.327 448.021 722.695 452.074 719.613 456.104C715.566 461.233 711.242 466.828 703.598 471.217C696.125 476.218 682.897 474.592 676.668 469.184C663.659 458.829 658.471 446.651 652.698 434.953C651.123 431.544 649.518 428.383 647.88 425.434C647.241 424.291 647.649 424.274 647.185 423.464C644.879 419.169 637.628 409.316 633.018 404.747C631.648 403.303 631.072 402.284 630.616 401.831C629.004 400.264 629.081 400.984 628.33 400.302C627.27 399.184 620.718 393.744 618.09 392.365C616.839 391.62 615.222 391.179 613.734 390.343C613.606 390.272 614.014 390.042 613.905 389.983C611.12 388.644 612.672 389.727 611.73 389.287C605.017 386.227 597.195 384.371 588.992 383.831C586.974 383.68 583.826 383.377 582.039 383.41C581.366 383.423 582.583 383.663 580.255 383.732C579.457 383.761 579.162 383.399 578.25 383.434C574.284 383.627 573.175 384.997 569.663 384.52C563.162 385.453 552.006 388.7 546.209 390.74C544.841 391.2 544.101 391.22 542.796 391.685C541.869 392.016 540.357 392.933 538.92 393.482C537.49 394.028 535.105 394.597 532.359 395.748C529.47 396.949 525.983 398.712 525.338 399.004C524.559 399.354 524.023 399.141 523.245 399.502C520.887 400.575 514.794 403.957 511.834 405.522C508.649 407.184 506.616 408.028 505.532 408.601C504.522 409.138 503.526 410.064 503.055 410.319C502.335 410.71 501.971 410.44 501.058 410.935C499.564 411.748 498.176 412.794 495.951 414.029C480.765 422.363 466.218 431.622 449.995 439.504C442.577 443.124 433.171 444.842 424.659 443.068C416.171 441.42 409.474 437.652 403.613 435.538C392.311 430.68 382.51 435 372.416 443.665C370.018 445.734 368.524 447.339 366.11 449.868C364.404 451.627 362.107 453.565 358.453 454.84C353.779 456.1 355.598 455.192 352.161 455.558C350.635 455.593 351.016 455.953 349.181 455.815C341.174 454.889 335.177 451.249 332.75 450.313C331.809 449.897 330.595 449.765 328.726 448.927C315.097 442.439 299.496 437.477 285.828 441.847C279.408 443.545 270.744 448.425 264.054 454.076C263.003 454.939 261.962 455.755 260.945 456.52C236.896 475.01 203.774 480.408 177.679 478.406C141.229 475.862 106.323 462.279 77.4175 440.562C74.9707 438.712 72.552 437.026 70.1114 435.489C72.3556 437.047 74.7327 438.807 77.2393 440.801C90.5111 451.437 108.464 461.263 124.464 467.37C167.17 484.089 223.846 487.494 264.55 454.686C273.614 447.242 283.719 442.124 294.151 441.319C302.583 440.526 312.317 442.804 322.525 447.28C327.686 449.46 332.916 452.138 339.068 454.488C344.803 456.627 354.558 459.635 363.353 453.844C364.32 453.209 365.556 452.139 366.904 450.639C367.375 450.088 367.892 449.517 368.44 448.989C368.727 448.673 372.983 445.373 374.258 444.361C372.37 444.686 378.222 440.933 379.812 439.982C381.881 438.561 386.15 435.392 390.957 434.906C395.266 434.667 394.044 435.34 394.287 435.293C395.755 435.486 396.34 434.984 397.581 435.131C399.938 435.131 406.578 438.137 417.504 442.318C428.572 446.977 444.145 444.215 450.511 440.595C451.575 440.098 452.522 439.638 453.309 439.247C455.789 438.008 456.002 438.299 456.527 438.032C457.882 437.331 459.853 435.867 461.99 434.696C465.997 432.508 470.633 430.261 472.799 429.024C477.925 426.099 487.277 420.207 493.848 416.548C495.698 415.515 495.775 415.916 496.617 415.449C500.264 413.399 509.717 407.846 514.343 405.582C521.871 401.829 529.783 398.495 537.571 395.332C538.129 395.3 538.686 395.27 539.242 395.243C539.957 394.778 540.685 394.313 541.409 393.855C554.721 389.118 568.562 385.239 581.959 384.904C583.536 384.769 591.051 385.383 592.267 385.61C593.293 385.719 594.359 385.413 595.866 385.709C597.965 386.152 595.857 386.575 599.293 387.016C600.215 387.154 599.408 386.606 601.262 386.93C601.962 386.771 613.278 390.658 613.764 391.243C614.735 391.758 615.199 392.849 615.435 392.993C616.637 393.736 616.862 393.214 617.726 393.65C620.333 394.955 623.089 397.41 623.474 397.7C628.133 400.775 636.091 408.23 639.437 413.372C639.917 414.072 639.513 414.247 639.591 414.375C640.092 415.2 640.84 415.407 641.392 416.169C644.306 420.113 648.048 427.124 650.194 431.67C650.452 432.201 651.222 433.224 651.67 434.213C651.836 434.578 651.986 434.915 652.12 435.226C654.288 440.106 653.165 438.479 653.309 438.825C653.671 439.647 654.738 440.873 655.806 442.851C658.729 448.431 664.832 458.648 670.149 464.09C674.072 468.126 674.054 468.364 674.269 468.627C674.851 469.072 676.957 470.518 680.964 472.458C689.328 475.731 688.917 475.053 692.833 475.227C693.148 475.143 692.647 475.114 696.913 474.25C706.066 472.613 716.066 462.026 719.465 457.381C720.88 455.546 720.914 454.908 722.271 453.046C724.443 450.049 729.181 443.92 729.491 443.555C729.581 443.433 729.48 442.883 730.049 442.124C730.668 441.301 731.422 440.675 731.878 440.115C733.076 438.562 734.892 436.62 734.995 436.677C735.043 436.676 734.376 436.999 733.816 437.161C733.28 437.326 733.105 437.552 733.831 437.885C732.938 437.796 731.909 437.413 731.322 436.946C730.747 436.492 730.642 436.121 730.73 435.977C730.796 436.019 730.863 436.061 730.929 436.103C738.362 443.508 746.344 450.131 755.884 455.642C758.029 456.867 759.775 458.084 761.726 458.985C763.532 460.059 773.07 462.8 774.881 462.856C776.356 463.13 781.576 463.999 787.007 463.138C792.474 462.409 797.388 459.708 798.354 459.104C802.394 456.807 805.842 454.039 806.928 452.623C807.797 451.465 806.734 452.259 808.299 450.142C811.102 446.459 814.637 440.13 815.094 438.902C815.291 438.367 814.751 439.286 816.531 434.508C817.41 432.022 818.102 430.672 818.377 429.753C818.443 429.462 817.977 429.816 819.143 425.365C819.19 425.18 819.24 424.986 819.294 424.783C820.149 421.569 820.852 420.387 820.939 420.058C821.073 419.573 821.009 418.319 821.56 416.42C822.9 411.676 825.912 403.79 827.547 399.662C827.86 398.871 827.319 398.911 828.588 395.858C829.518 393.669 829.733 394.142 830.097 393.322C830.71 391.969 831.057 390.014 832.515 387.116C833.334 385.503 837.24 377.96 842.09 373.044C844.447 370.597 846.881 369.03 848.488 368.47C850.099 367.891 850.9 368.021 851.065 368.028C851.488 368.096 851.943 368.159 852.106 368.395C851.906 368.555 851.728 368.726 851.567 368.907C850.817 368.522 850.5 368.634 850.427 368.752C850.343 368.882 850.439 369.072 850.213 369.14C849.908 369.235 849.065 369.435 848.025 370.003C847.028 370.525 845.87 371.442 845.519 371.853C845.25 372.177 846.221 371.815 844.708 373.496C843.158 375.328 841.806 375.911 841.921 377.368C838.65 379.779 837.452 384.135 840.368 380.159C840.933 379.35 845.887 372.821 849.424 371.572C851.129 370.946 851.324 371.166 852.202 371.495C853.057 371.866 854.261 372.956 854.807 373.585C856.711 375.323 860.293 381.658 861.147 386.552C861.92 389.339 862.23 396.572 861.598 396.254C861.499 398.802 862.067 396.112 862.132 396.646C862.178 397.008 862.163 398.087 862.037 399.43C861.63 403.603 861.478 409.336 861.636 411.208C861.82 414.033 862.19 417.487 863.328 421.358C864.554 425.198 866.514 430.692 872.856 434.905C879.414 439.053 886.227 438.168 890.116 437.254C894.249 436.252 897.216 434.909 899.842 433.774C899.43 434.146 899.008 434.515 898.574 434.882C897.388 435.559 894.058 437.278 889.118 438.345C884.377 439.705 876.725 438.206 875.224 437.605C884.093 441.06 890.276 438.632 894.481 437.254C898.811 435.624 902.106 433.749 905.167 431.954C908.197 430.16 910.967 428.354 913.365 426.906C914.541 426.193 915.679 425.556 916.274 425.282C916.524 425.155 916.726 425.129 916.086 425.305C915.564 425.234 913.498 426.679 908.119 423.891C909.11 424.488 910.319 425.279 911.517 426.09C911.547 425.262 925.49 435.363 925.989 436.146C925.572 436.186 925.166 436.233 924.752 436.275C917.526 429.593 917.372 431.24 912.604 426.986C910.522 425.55 910.889 426.368 909.849 425.782C908.92 425.266 908.181 424.87 907.683 424.616C909.308 425.608 910.863 426.06 912.032 426.265C913.128 426.451 913.823 426.453 914.411 426.439C915.605 426.382 915.893 426.278 916.216 426.212C916.774 426.068 916.733 426.033 916.779 425.98C916.803 425.887 916.729 425.769 916.658 425.649C916.572 425.534 916.536 425.401 916.556 425.309C916.549 425.239 916.397 425.209 914.888 426.165C915.996 425.94 915.415 426.49 913.872 427.6C912.346 428.7 909.785 430.429 908.084 431.522C907.687 431.972 895.757 438.44 892.677 438.92C889.791 439.73 885.748 441.097 879.165 439.956C872.366 438.996 865.537 432.65 863.42 427.918C858.867 418.265 859.548 412.32 859.467 407.694C859.475 404.158 859.507 401.857 859.564 399.251C859.551 397.562 859.428 395.944 859.263 393.938C858.963 390.973 859.34 391.81 859.173 390.405C858.733 387.482 857.485 386.878 858.367 384.718C857.651 382.922 856.791 381.207 855.865 379.76C856.065 379.66 856.264 379.56 856.463 379.461C855.959 378.454 855.433 377.557 854.877 376.746C854.531 376.636 854.199 376.554 853.862 376.476C852.434 374.265 853.51 374.801 853.633 373.986C853.293 373.593 852.95 373.254 852.663 373C852.14 373.223 851.694 373.527 851.366 373.904C851.027 373.729 851.184 373.793 851.205 373.756C851.232 373.736 850.915 373.717 850.131 374.122C849.919 373.985 849.714 373.847 849.485 373.727C849.596 373.919 849.708 374.111 849.82 374.302C846.761 376.073 842.104 382.251 838.834 388.848C838.128 390.669 844.235 380.595 844.768 380.428C846.085 378.697 848.63 375.892 850.097 375.081C850.82 374.636 851.195 374.573 851.285 374.63C851.382 374.69 851.299 374.833 851.321 375.028C851.248 374.888 851.098 374.788 850.984 374.707C850.868 374.63 850.853 374.577 851.047 374.712C851.431 374.929 852.459 376.22 852.641 377.077C851.924 376.121 851.219 375.494 850.9 375.272C850.552 375.033 850.726 375.168 851.065 375.165C851.024 375.428 850.974 375.689 850.915 375.949C851.56 375.465 851.506 375.113 851.348 375.192C851.168 375.28 850.924 375.605 850.129 376.849C849.908 376.571 849.687 376.292 849.466 376.014C848.696 377.908 843.293 381.589 844.502 382.655C843.317 384.165 842.221 385.724 841.08 387.53C839.274 391.759 842.93 385.268 835.398 402.257C834.904 403.482 834.604 403.157 833.966 405.005C833.82 405.465 833.131 408.922 831.26 414.91C830.962 415.871 830.617 415.849 830.276 416.862C829.441 419.327 828.901 423.944 828.404 421.601C827.502 424.558 827.095 426.304 826.938 427.305C826.483 429.849 827.339 428.529 826.891 431.053C826.431 433.481 825.933 432.899 825.392 435.05C824.525 437.72 826.519 435.948 821.146 446.68C821.754 445.402 822.26 444.236 822.775 442.973C822.338 443.521 821.897 444.057 821.45 444.582C818.7 450.968 818.268 450.083 817.204 453.538C813.579 457.774 810.429 461.893 802.772 466.734C795.093 471.063 792.685 471.263 790.375 471.997C788.066 472.442 784.868 473.401 776.064 471.717C773.244 471.556 770.523 471.164 767.922 470.623C764.008 468.938 767.282 469.576 761.669 467.306C765.588 470.113 754.166 464.803 752.19 464.457C752.114 464.159 752.041 463.861 751.969 463.563C750.868 462.934 749.817 462.303 748.776 461.653C748.678 461.802 748.58 461.952 748.482 462.101C747.143 461.107 745.887 460.119 744.635 459.093C743.522 458.542 742.475 458.012 741.402 457.444C740.017 455.962 738.76 454.519 737.485 453.015C736.579 452.253 735.679 451.476 734.783 450.685C734.9 451.132 735.019 451.579 735.14 452.026C734.003 450.963 732.925 449.919 731.843 448.842C732.901 450.338 731.649 449.997 728.211 446.808C725.644 444.371 728.527 446.119 724.434 442.327C724.861 442.762 725.544 443.436 726.869 444.221C727.42 444.444 728.093 445.447 731.937 446.182C733.836 446.53 736.733 446.239 738.444 445.562C740.305 444.865 740.875 444.273 740.719 444.473C740.466 444.739 739.773 445.516 739.457 445.86C739.093 446.256 738.894 446.433 738.804 446.461C738.62 446.525 738.831 446.063 738.469 446.507C738.346 446.65 737.357 448.465 736.103 450.304C735.369 451.372 734.435 452.24 734.326 452.394C733.859 453.077 734.008 453.514 733.345 454.477C731.636 456.96 728.949 460.407 726.847 463.115C725.895 464.349 725.104 465.66 724.638 466.219C723.909 467.097 722.68 467.995 721.872 468.879C719.121 472.132 713.48 478.336 710.023 478.449C707.971 480.608 703.317 482.86 698.669 483.684C694.027 484.579 690.223 484.059 690.814 484.589C679.159 484.702 666.313 475.282 660.866 468.404C654.879 461.399 651.931 455.678 652.717 455.544C648.591 451.347 649.805 451.315 648.605 449.203C647.294 446.811 647.697 448.133 646.788 446.37C645.632 444.105 644.528 441.773 643.415 439.33C642.691 437.727 641.954 436.178 641.175 434.668C641.644 435.093 642.113 435.527 642.583 435.971C640.818 432.367 640.999 433.801 639.019 430.435C635.078 424.073 637.015 426.654 636.944 425.391C636.693 425.897 631.972 418.846 631.47 418.244C631.186 417.836 633.155 419.066 629.802 415.324C629.813 415.683 629.823 416.042 629.831 416.401C628.561 414.27 624.21 410.299 623.439 409.557C623.134 409.217 622.475 406.179 619.821 405.894C619.744 405.55 619.665 405.207 619.583 404.863C617.414 403.532 615.297 402.431 613.046 401.435C612.914 400.897 612.773 400.358 612.624 399.82C611.943 399.446 611.269 399.094 610.573 398.75C610.881 399.298 611.16 399.84 611.438 400.39C607.359 397.956 601.711 396.79 601.063 395.409C600.016 395.349 598.96 395.317 597.908 395.315C597.338 394.783 596.75 394.26 596.144 393.745C591.284 393.051 591.128 393.391 587.707 393.592C587.855 393.288 588.005 392.984 588.156 392.681C585.595 392.955 580.91 393.382 577.106 393.803C575.306 393.972 572.131 393.963 571.692 394.075C571.236 394.16 567.261 396.553 566.513 395.238C560.261 397.168 557.276 397.417 554.67 398.177C552.979 398.692 552.309 399.264 550.401 399.922C547.677 400.864 544.87 401.698 543.289 402.316C542.385 402.67 542.34 403.053 541.723 403.3C538.802 404.491 540.398 403.484 537.3 404.757C537.014 404.878 534.905 406.187 532.338 407.249C530.902 407.832 527.021 409.078 526.695 409.237C525.255 409.921 526.805 410.196 521.424 411.58C521.645 411.67 521.865 411.761 522.084 411.853C516.186 415.225 514.908 415.045 513.637 415.624C513.477 415.7 512.134 416.738 511.232 417.163C509.707 417.88 508.913 417.828 508.575 417.985C507.384 418.539 503.519 420.827 500.781 421.878C501.874 422.621 493.11 428.002 490.421 427.996C488.974 429.127 487.485 430.286 485.999 431.446C485.158 431.672 484.321 431.896 483.488 432.118C483.159 432.562 482.832 433.006 482.506 433.449C479.837 434.42 477.3 435.314 474.627 436.276C474.714 436.79 474.801 437.303 474.888 437.817C474.179 438.157 473.473 438.494 472.773 438.826C472.055 438.786 471.341 438.742 470.631 438.696C469.865 439.213 468.971 439.798 468.148 440.341C468.07 440.706 467.991 441.072 467.913 441.437C463.393 444.253 464.732 440.64 456.311 447.556C455.583 447.802 454.859 448.039 454.14 448.268C453.021 448.663 451.907 449.02 450.801 449.337C449.024 451.255 444.191 452.196 440.303 452.96C437.465 453.49 437.746 453.954 433.734 454.19C429.766 454.287 429.917 453.753 429.617 453.764C426.444 453.577 424.056 453.557 421.888 453.049C421.574 452.964 420.808 452.354 418.251 451.631C415.748 450.892 414.07 450.893 410.904 449.58C409.319 448.909 409.045 448.349 407.767 447.782C401.6 444.951 397.325 445.572 395.846 442.922C395.572 443.034 394.585 443.25 393.761 443.579C392.916 443.895 392.086 444.307 391.432 444.452C389.35 444.986 389.958 444.319 388.984 444.608C388.808 444.692 388.214 445.018 385.867 446.386C385.44 446.641 385.681 446.816 385.622 446.856C382.902 448.403 376.866 453.276 373.593 456.698C373.548 456.743 373.487 456.829 373.405 456.948C372.168 458.258 368.516 463.3 359.169 464.935C341.53 469.206 330.293 458.659 322.731 457.212C321.71 456.781 320.634 456.012 320.206 455.837C316.541 454.43 317.424 455.409 310.228 451.74C310.711 452.338 308.833 452.11 306.507 451.532C303.018 450.745 305.652 450.456 302.835 450.055C302.804 450.275 302.773 450.494 302.741 450.714C296.573 449.467 295.457 450.469 289.661 451.687C287.597 452.161 284.268 452.938 283.744 453.188C283.558 453.249 281.444 454.836 281.209 454.982C279.999 455.627 279.171 455.811 278.058 456.475C274.479 458.565 270.7 462.544 270.667 460.952C270.496 461.159 270.324 461.368 270.151 461.579C269.168 462.651 268.162 463.705 267.135 464.739C260.878 467.741 257.461 471.817 255.557 471.415C254.643 472.254 253.714 473.081 252.77 473.893C226.794 487.599 197.671 490.647 170.642 487.705C169.503 488.112 157.715 486.258 157.168 485.999C154.481 485.193 157.529 484.871 151.937 483.954C151.242 484.22 150.545 484.482 149.843 484.74C142.832 483.267 146.29 483.638 143.625 482.704C142.476 482.459 142.764 482.859 141.218 482.471C132.781 480.525 116.154 474.53 107.693 470.414C105.975 469.616 106.362 469.47 105.832 469.217C104.377 468.526 101.34 467.448 98.47 465.933C90.1173 461.548 80.4747 455.617 71.354 448.713C63.3074 442.531 55.0511 438.453 49.1455 437.373C48.3801 437.223 48.3404 436.871 47.8354 436.789C47.1057 436.666 45.5539 436.849 44.8404 436.83C44.1802 436.803 43.7245 436.552 43.0016 436.572C39.6552 436.62 35.3323 438.346 30.6213 439.867C30.314 439.893 24.7583 441.324 24.5066 441.391C23.4782 441.355 27.9831 437.774 19.5393 441.703C26.2071 437.023 24.1595 436.972 13.3953 442.179C18.8955 439.142 23.1035 436.212 27.3467 433.942C27.2875 433.808 27.2283 433.675 27.1692 433.541C22.8272 434.842 19.0779 437.142 11.4312 440.996C11.6177 440.755 11.8012 440.512 11.9821 440.27C18.3263 436.202 24.4313 432.138 28.2673 429.518C21.8078 431.595 15.5164 435.297 7.77212 438.089C8.10861 437.825 8.44387 437.555 8.75376 437.292C12.2227 435.413 18.7103 431.25 21.1165 429.688C30.3361 423.617 12.2732 433.745 14.9558 431.648C25.0883 425.585 35.8567 420.467 47.3169 421.409C47.6145 421.136 36.4435 419.932 25.9906 424.506C15.6812 428.916 5.61703 434.429 5.47032 433.318C8.78857 431.78 11.8969 429.803 15.1156 427.857C13.4871 428.402 11.8905 428.938 10.292 429.441C10.6374 429.125 10.9782 428.81 11.315 428.494C16.584 425.176 22.0462 421.565 28.2593 418.997C9.98613 427.454 2.74007 432.993 -0.784783 430.022C-0.483104 429.913 -0.171071 429.788 0.154193 429.645C3.07928 431.958 19.3957 419.491 30.7768 416.035C28.2268 416.058 19.2394 420.534 17.4511 421.338C16.9023 421.537 18.5165 420.284 17.2535 420.765C13.6442 422.247 1.83998 428.212 3.42801 426.566C3.4591 426.674 23.6888 413.63 29.7922 412.781C17.8432 415.589 7.3 423.554 0.493568 425.17C4.21354 422.803 7.60821 418.206 20.3928 411.986C22.3382 410.808 15.9271 413.211 10.3125 416.157C4.49712 419.22 0.199391 421.092 0.125191 420.87C2.46417 419.515 5.9245 417.036 9.85638 414.419C6.42011 416.47 3.37676 418.405 1.02422 419.648C0.968478 419.552 0.912811 419.455 0.857217 419.358C7.05793 415.863 15.3509 408.058 30.0981 404.176C29.4316 403.601 20.7835 406.449 17.3114 408.26ZM858.368 413.369C857.873 413.729 857.619 408.37 857.727 405.68C857.631 406.106 857.539 406.529 857.45 406.95C857.487 404.561 857.633 401.973 857.835 399.125C858.04 396.397 857.71 393.827 857.11 393.732C856.803 391.325 857.697 392.314 857.711 391.518C857.724 391.189 856.823 388.108 856.678 385.595C856.513 385.024 856.34 384.479 856.152 383.933C855.821 383.927 855.491 383.924 855.162 383.926C855.257 383.061 855.334 382.23 855.364 381.365C857.666 386.416 858.777 393.009 858.359 399.163C858.063 403.785 857.922 408.04 858.366 413.345C858.367 413.353 858.367 413.361 858.368 413.369ZM831.625 410.688C830.184 414.503 828.091 421.021 829.291 419.892C829.964 417.3 830.731 414.542 831.461 412.074C831.514 411.611 831.555 411.193 831.625 410.688ZM474.712 435.312C470.875 436.529 468.156 438.932 462.641 441.741C462.732 441.893 462.823 442.045 462.915 442.197C464.996 440.609 470.844 437.673 474.712 435.312ZM968.709 446.599C969.607 446.657 970.529 446.708 971.481 446.748C967.705 447.78 967.072 447.1 962.999 447.144C962.755 447.146 962.836 447.365 962.751 447.365C961.759 447.363 960.853 447.081 959.965 447.064C958.256 447.028 956.855 447.257 953.849 447.135C951.525 447.037 951.531 446.615 950.707 446.591C950.209 446.576 946.662 446.999 942.964 446.945C941.053 446.77 936.794 445.289 935.314 444.066C934.173 443.27 932.995 442.362 932.099 441.494C929.999 439.472 932.194 440.821 935.824 443.408C937.215 444.557 941.218 445.949 943.014 446.113C951.53 446.364 966.829 446.651 968.709 446.599ZM997.219 442.713C996.267 443.07 995.294 443.409 994.3 443.728C997.067 442.123 991.149 444.351 986.515 445.08C986.539 444.626 996.274 442.522 999.858 440.529C999.011 441.27 998.134 441.999 997.219 442.713ZM905.283 430.338C908.18 428.504 908.051 429.466 908.068 429.73C907.166 430.289 906.236 430.859 905.273 431.433C905.279 431.067 905.282 430.702 905.283 430.338ZM913.182 425.292C912.584 425.249 910.435 424.014 908.618 423.064C909.956 423.888 911.358 424.323 912.453 424.5C913.436 424.66 914.149 424.65 914.697 424.617C915.716 424.537 916.002 424.421 916.142 424.4C916.364 424.347 915.974 424.514 915.634 424.701C915.597 424.72 915.663 424.607 915.59 424.567C915.498 424.539 915.37 424.517 914.61 424.951C914.375 425.022 909.344 429.379 909.933 427.623C911.725 426.448 913.447 425.322 914.786 424.545C915.417 424.171 916.027 423.878 916.013 423.866C915.995 423.853 915.765 423.959 914.931 424.056C914.445 424.107 913.746 424.145 912.802 424.021C911.773 423.893 910.279 423.488 908.879 422.63C910.142 423.343 911.686 424.319 913.175 425.287C913.177 425.289 913.18 425.291 913.182 425.292ZM918.464 429.394C917.339 428.785 916.23 428.194 915.113 427.608C914.737 427.044 914.339 426.467 913.962 425.908C915.146 426.652 916.346 427.424 917.55 428.209C917.852 428.601 918.16 428.998 918.464 429.394ZM156.381 479.416C156.65 479.734 156.92 480.052 157.191 480.369C158.397 480.785 164.613 480.613 162.735 480.092C160.605 479.903 158.499 479.679 156.381 479.416ZM131.784 472.404C130.636 471.881 129.486 471.344 128.353 470.801C126.849 470.738 125.34 470.657 123.825 470.556C129.591 473.097 135.94 475.397 135.29 473.823C136.666 474.254 138.046 474.669 139.427 475.068C138.116 475.245 138.204 475.486 141.762 476.83C142.767 476.323 146.421 477.721 150.852 478.531C147.67 477.779 144.537 476.951 141.403 476.039C141.439 475.911 141.474 475.782 141.51 475.654C148.493 477.56 140.012 474.513 135.389 473.572C135.087 473.292 134.79 473.013 134.492 472.732C133.591 472.629 132.688 472.52 131.784 472.404ZM591.968 387.899C591.258 387.692 590.54 387.495 589.814 387.308C586.843 388.874 592.823 387.498 596.532 389.609C595.409 388.306 601.424 389.556 601.755 389.649C601.168 389.131 600.557 388.619 599.936 388.118C597.282 387.883 594.626 387.817 591.968 387.899ZM570.715 387.346C573.469 387.725 560.542 389.959 556.158 391.168C555.082 391.407 553.076 391.488 552.331 391.776C551.92 392.082 551.51 392.391 551.102 392.701C550.366 392.239 542.132 395.713 538.975 397.35C538.586 397.262 538.195 397.175 537.804 397.09C536.635 397.642 535.468 398.205 534.303 398.779C534.37 398.513 534.437 398.246 534.504 397.98C533.695 398.598 532.89 399.22 532.091 399.847C528.667 401.632 530.371 399.586 527.86 401.097C525.079 402.79 530.204 401.299 530.297 401.778C532.629 400.615 537.999 398.132 540.438 397.218C541.848 396.698 540.532 398.005 546.285 394.972C547.684 394.73 549.1 394.501 550.502 394.294C552.846 393.183 555.191 392.132 557.586 391.138C558.126 391.318 558.662 391.5 559.195 391.687C559.456 391.638 565 389.674 564.658 389.535C567.086 389.641 571.842 388.875 576.765 388.487C577.227 388.278 577.691 388.072 578.156 387.869C573.379 388.636 576.605 387.819 575.141 387.631C574.301 387.522 571.705 387.476 570.715 387.346ZM196.506 481.62C186.772 482.701 192.779 482.051 182.278 481.852C182.996 482.28 183.718 482.703 184.446 483.121C189.659 482.589 198.233 482.634 196.516 481.62C196.513 481.62 196.509 481.62 196.506 481.62ZM98.1725 458.995C103.145 461.389 100.968 459.585 107.278 462.515C107.281 462.517 107.284 462.518 107.287 462.519C104.074 460.901 100.916 459.203 97.7963 457.418C97.9191 457.943 98.0441 458.469 98.1725 458.995ZM388.392 438.734C391.401 438.006 390.801 437.85 393.358 438.242C397.166 437.561 393.955 437.567 393.926 436.897C392.994 437.1 392.133 437.378 391.265 437.73C388.93 437.551 390.972 436.792 390.975 436.741C390.973 436.741 390.971 436.741 390.969 436.742C390.929 436.544 391.015 436.466 390.075 436.542C389.435 437.25 388.939 437.966 388.392 438.734ZM401.822 438.462C400.396 438.478 399.587 438.753 402.935 440.285C402.937 440.286 402.94 440.287 402.942 440.288C403.555 439.41 406.85 441.646 408.786 442.397C409.314 442.498 409.851 442.603 410.398 442.709C407.163 441.105 404.356 439.597 401.822 438.462ZM479.4 426.011C479.977 426.976 476.818 428.914 481.857 427.213C482.73 426.688 483.61 426.16 484.496 425.63C484.958 425.081 485.446 424.518 485.885 423.983C498.075 419.42 499.8 414.411 481.392 426.403C481.389 426.405 481.387 426.407 481.385 426.409C480.721 426.277 480.06 426.145 479.4 426.011ZM459.149 437.513C459.273 438.115 459.398 438.717 459.521 439.319C457.123 439.395 454.801 441.149 451.472 442.627C450.017 443.277 448.502 443.819 446.637 444.218C446.072 444.613 445.503 444.995 444.928 445.365C443.676 445.624 436.103 447.591 429.419 447.054C422.769 446.652 417.99 445.045 420.574 446.313C422.853 447.427 428.749 447.645 429.25 447.602C430.933 447.751 433.191 448.321 436.155 447.998C437.816 447.832 441.222 446.698 444.34 445.733C446.442 445.104 448.983 444.325 451.742 443.198C457.099 441.085 463.2 438.268 467.258 434.781C467.826 434.666 468.347 434.577 468.896 434.472C473.572 431.699 471.799 432.055 476.46 430.161C478.209 425.984 458.638 440.385 461.92 435.909C461.917 435.91 461.914 435.912 461.911 435.913C461.067 436.411 460.06 436.991 459.149 437.513ZM314.565 446.7C314.441 446.071 309.033 445.277 310.575 444.483C308.759 444.418 306.975 444.441 305.272 444.565C305.265 444.677 305.257 444.79 305.25 444.903C306.874 445.102 308.547 445.396 310.229 445.768C310.188 445.942 310.148 446.115 310.107 446.288C312.665 446.093 323.288 450.686 322.764 451.241C323.447 451.25 324.156 451.272 324.863 451.296C330.031 454.305 334.734 456.114 342.853 459.23C343.57 459.195 344.287 459.145 345.059 459.088C345.486 459.362 345.925 459.63 346.378 459.89C349.868 460.525 354.292 460.797 359.007 459.377C362.724 457.952 363.39 457.033 362.72 457.251C362.049 457.396 359.73 458.375 356.876 458.822C350.903 459.874 345.02 458.067 343.91 457.855C343.602 457.784 343.519 458.272 341.593 457.773C337.578 456.996 323.713 449.828 319.811 448.67C319.892 448.373 319.973 448.076 320.053 447.779C318.179 447.35 316.36 446.99 314.565 446.7ZM505.066 413.037C505.506 413.155 505.946 413.273 506.386 413.392C511.335 410.42 514.719 409.052 512.933 408.797C512.93 408.798 512.927 408.799 512.925 408.801C510.299 410.18 507.657 411.607 505.066 413.037ZM834.518 389.728C833.873 389.651 832.598 391.716 831.652 395.104C831.883 395.018 832.113 394.934 832.343 394.852C832.581 393.003 834.216 391.339 836.503 386.69C836.229 386.544 835.954 386.398 835.68 386.253C835.292 387.362 834.905 388.52 834.518 389.728ZM500.577 415.302C498.866 415.81 495.003 419.222 497.922 417.67C500.14 416.493 501.501 415.024 500.577 415.302ZM80.1007 447.076C81.2284 447.942 82.3686 448.798 83.5159 449.64C84.2791 449.831 85.0419 450.017 85.8044 450.198C85.8016 450.196 85.7988 450.194 85.7961 450.192C83.8855 449.187 81.9849 448.147 80.1007 447.076ZM377.394 445.367C380.364 442.922 383.377 440.877 386.267 439.519C386.225 439.349 386.184 439.178 386.144 439.007C383.482 440.943 381.941 441.26 381.154 441.702C381.157 441.7 381.16 441.698 381.163 441.696C378.859 443.054 376.546 444.75 374.286 446.459C375.284 446.1 376.372 445.69 377.394 445.367ZM364.226 455.637C365.378 455.744 366.615 455.529 369.204 452.87C370.009 451.994 371.031 450.692 372.487 448.879C372.19 448.952 371.922 448.999 371.642 449.058C370.175 450.537 369.118 451.829 368.572 452.257C368.083 452.689 367.879 452.726 367.995 452.311C366.862 453.53 365.737 454.567 364.226 455.637ZM418.251 445.03C417.235 444.416 410.162 442.078 410.546 442.403C410.406 442.557 419.777 446.423 418.251 445.03ZM854.528 371.574C854.001 371.028 853.489 370.6 853.037 370.286C853.747 370.476 854.64 370.914 855.568 371.604C855.213 371.574 854.864 371.563 854.528 371.574ZM862.157 380.153C862.285 381.02 860.423 378.778 861.749 383.698C860.673 380.134 859.094 376.801 857.231 374.31C858.228 375.367 859.207 376.666 860.094 378.094C860.251 377.696 860.405 377.3 860.543 376.884C861.124 377.908 861.674 379.029 862.157 380.153ZM862.677 384.288C863.126 381.965 865.405 392.899 865.004 394.033C864.994 394.269 864.398 395.39 864.263 395.79C864.246 394.122 864.137 392.446 863.941 390.799C863.809 391.373 863.666 391.944 863.514 392.511C863.289 390.598 862.943 388.703 862.48 386.858C862.846 387.619 863.189 388.379 863.514 389.167C863.327 387.529 863.046 385.882 862.677 384.288ZM841.881 375.836C842.683 374.892 843.693 373.827 844.518 373.078C844.137 373.011 843.748 372.957 843.351 372.914C842.826 373.44 842.259 374.052 841.725 374.672C841.775 375.059 841.827 375.446 841.881 375.836ZM856.335 371.701C855.279 371.674 854.673 370.607 854.519 369.944C854.35 369.309 854.754 368.747 856.147 370.736C856.414 371.145 856.541 371.706 856.335 371.701ZM864.836 398.233C864.949 398.785 865.001 399.257 865.013 399.647C865.043 402.46 864.078 402.118 864.048 399.577C864.028 399.014 864.082 398.309 864.25 397.471C864.293 397.266 864.771 397.897 864.836 398.233ZM894.888 432.811C895.329 432.605 896.768 432.972 900.526 430.082C901.242 429.788 901.932 429.497 902.618 429.199C901.957 429.779 898.475 432.057 894.408 433.703C890.451 435.456 885.198 435.868 886.761 435.277C890.189 434.769 892.347 433.831 894.888 432.811ZM874.508 429.199C871.567 426.767 870.088 423.648 869.218 421.195C869.3 422.177 869.363 423.011 869.645 424.149C868.873 422.714 868.383 421.526 867.915 420.154C867.82 419.058 867.781 417.939 867.788 416.798C867.821 415.8 867.889 414.782 867.986 413.734C868.829 418.588 869.195 424.975 876.343 429.945C875.693 429.726 875.111 429.497 874.508 429.199ZM863.449 374.971C864.712 378.014 866.621 381.822 867.585 387.405C867.585 387.408 867.585 387.411 867.584 387.414C867.63 387.691 867.388 388.234 867.504 389.13C867.617 389.589 868.425 395.635 867.987 399.862C867.734 403.099 867.634 405.176 867.426 404.674C867.338 402.85 867.39 401.228 867.476 399.825C867.633 396.872 867.717 395.415 866.769 394.443C867.025 394.154 867.279 393.862 867.53 393.565C867.592 387.919 866.187 386.45 865.124 383.608C865.321 383.566 865.518 383.525 865.715 383.483C865.187 381.479 864.529 379.54 863.731 377.686C863.725 378.001 863.717 378.316 863.705 378.632C863.428 377.967 863.139 377.323 862.837 376.702C862.635 374.914 861.624 372.949 863.449 374.971ZM889.252 432.066C892.093 431.026 910.322 419.977 914.287 418.196C913.04 419.347 906.3 423.067 902.154 425.534C893.52 430.434 899.75 427.533 898.398 428.583C897.726 429.13 891.969 430.883 889.252 432.066ZM856.147 366.833C858.657 368.643 860.317 370.086 861.637 373.062C861.396 372.893 861.154 372.732 860.913 372.578C860.67 372.11 859.291 370.038 857.946 368.693C856.61 367.306 855.426 366.559 856.147 366.833ZM919.457 423.161C912.655 417.76 915.37 421.308 912.321 418.096C914.712 419.507 917.211 421.163 919.687 422.835C919.61 422.944 919.534 423.052 919.457 423.161ZM489 415.162C485.673 416.995 482 418.776 480.287 420.421C482.587 419.205 484.771 418.06 487.044 416.874C487.691 416.305 488.353 415.729 489 415.162ZM586.518 375.919C585.661 375.742 582.247 376.167 581.895 376.191C581.235 376.209 581.408 376.005 581.398 375.952C577.062 376.171 581.088 376.601 577.9 376.916C577.345 376.918 569.847 377.357 566.803 377.969C562.185 378.771 557.562 379.847 555.872 380.293C552.973 381.031 547.811 382.986 543.196 384.594C541.301 385.251 540.514 385.133 538.61 385.835C526.281 390.098 503.529 401.995 493.412 407.476C490.858 408.812 488.249 409.714 486.969 410.48C486.039 411.207 485.052 411.97 484.107 412.711C480.131 413.12 479.784 414.967 476.42 417.07C474.31 418.391 473.066 418.557 472.76 418.734C470.8 419.871 469.964 420.612 468.485 421.502C466.805 422.512 464.187 423.752 463.617 424.117C463.24 424.349 464.823 424.229 458.082 427.941C454.478 429.907 450.779 431.836 447.164 433.521C443.713 435.129 440.073 436.326 436.234 436.846C439.291 438.33 441.423 436.455 444.503 435.189C445.311 434.848 444.906 435.339 445.62 435.029C446.133 434.804 446.764 434.498 447.455 434.135C449.239 433.191 451.664 431.789 452.809 431.252C454.511 430.45 454.257 431.383 456.31 429.99C456.415 429.919 455.927 429.852 456.419 429.531C461.198 426.388 463.076 425.901 469.398 422.31C473.537 419.89 498.65 405.329 499.687 405.164C504.653 403.514 478.023 418.308 474.912 420.132C473.797 420.74 474.794 419.798 473.755 420.323C473.269 420.573 469.936 423.201 466.105 425.434C461.686 428.036 452.386 432.697 447.778 434.819C447.723 434.845 447.668 434.871 447.614 434.896C440.194 438.552 431.131 439.749 423.063 437.5C414.998 435.431 408.16 431.282 401.054 429.453C386.58 425.059 372.994 435.526 362.444 446.31C358.014 451.4 350.044 451.535 344.715 449.705C339.069 448.009 334.045 445.475 328.977 443.24C328.146 442.872 326.93 442.714 324.232 441.573C303.48 431.263 278.439 434.311 260.732 449.988C234.477 471.345 198.624 476.394 166.48 471.896C154.235 470.22 142.177 467.533 130.52 463.066C128.976 462.796 127.429 462.506 125.881 462.194C129.646 463.466 136.363 466.339 137.004 466.524C137.229 466.596 138.764 466.774 141.09 467.47C144.358 468.44 145.763 469.056 146.032 469.13C146.875 469.35 146.392 468.938 147.196 469.146C153.202 470.675 157.929 471.549 163.549 472.44C169.89 473.402 173.115 474.221 177.842 473.998C178.356 474.256 178.872 474.511 179.39 474.763C182.956 474.336 203.82 474.088 212.188 472.202C214.825 471.743 214.434 472.197 215.318 472.025C215.876 471.876 215.594 471.578 222.411 469.951C225.837 469.077 226.821 469.131 228.52 468.579C229.438 468.27 229.174 467.973 230.483 467.524C238.042 464.869 244.08 462.187 250.867 458.155C252.765 457.005 252.943 457.234 253.361 456.962C254.891 455.941 257.255 453.76 260.876 450.855C260.987 450.766 261.1 450.675 261.214 450.582C266.727 445.686 278.743 439.063 284.298 438.116C285.11 437.919 285.857 438.105 286.429 437.958C287.311 437.733 287.597 437.283 287.754 437.246C290.779 436.643 288.999 437.343 291.019 436.931C292.129 436.736 293.168 436.128 295.803 435.962C299.204 435.819 298.558 436.4 299.971 436.388C300.122 436.39 300.179 436.014 301.589 436.109C306.957 436.391 314.639 438.366 319.534 440.287C320.933 440.815 321.908 441.459 323.84 442.271C327.436 443.718 350.871 454.838 355.157 451.62C355.293 451.601 354.698 451.859 354.609 452.006C354.516 452.125 354.983 452.33 357.209 451.606C358.432 450.946 359.511 450.142 360.461 449.229C361.581 448.704 362.545 448.138 363.553 447.387C364.208 446.941 364.855 446.514 365.493 446.104C364.513 445.2 371.535 438.548 372.373 439.65C373.234 439.016 373.992 438.489 374.898 437.879C376.155 435.906 377.453 435.27 380.783 432.868C381.479 432.802 382.155 432.764 382.808 432.753C382.866 432.529 382.936 432.301 383.012 432.072C385.36 432.008 388.18 430.217 388.672 430.137C390.213 429.77 391.434 429.894 392.145 429.83C394.818 429.403 400.909 430.053 404.156 431.497C404.307 431.56 404.021 431.89 404.932 432.273C406.576 432.982 406.964 432.485 408.979 434.081C409.511 434.109 410.043 434.139 410.581 434.172C411.042 434.466 411.508 434.762 411.976 435.058C414.967 436.26 418.099 437.484 421.442 438.389C418.23 438.118 421.547 439.705 425.17 439.831C426.385 439.864 425.412 439.256 425.815 439.263C426.083 439.266 430.147 440.058 434.393 439.784C438.63 439.594 442.746 438.36 443.252 438.331C443.914 437.973 444.629 437.572 445.237 437.191C445.672 437.308 446.115 437.418 446.566 437.52C446.909 437.275 447.251 437.025 447.593 436.769C447.879 436.677 448.195 436.561 448.536 436.421C452.492 434.87 459.716 429.889 461.105 429.191C461.939 428.778 461.827 430.158 465.677 427.857C465.658 427.508 465.639 427.159 465.62 426.81C466.491 426.266 467.372 425.714 468.263 425.154C470.014 424.188 472.643 423.305 472.927 423.57C473.341 423.075 473.758 422.579 474.179 422.081C475.972 421.886 483.31 417.372 486.098 415.272C487.088 414.963 488.113 414.635 489.082 414.341C490.124 413.45 491.178 412.556 492.241 411.661C494.972 410.055 492.259 412.064 492.868 411.769C494.176 411.118 500.124 407.034 500.165 408.078C501.036 407.613 501.92 407.144 502.779 406.691C503.099 406.221 503.421 405.75 503.744 405.28C505.66 405.315 508.111 403.638 513.604 401.292C513.96 400.881 514.318 400.47 514.678 400.06C516.481 399.514 518.263 398.994 520.06 398.484C520.255 398.007 520.451 397.531 520.649 397.054C521.357 396.671 522.067 396.29 522.779 395.912C524.584 395.949 526.917 393.998 528.417 393.712C530.6 393.304 529.263 394.449 525.633 396.168C526.121 396.51 537.019 391.666 539.603 390.76C539.394 390.719 539.185 390.678 538.975 390.637C536.374 391.701 533.799 392.815 531.229 393.979C528.49 393.561 535.727 390.965 538.965 389.607C539.26 389.483 540.786 388.316 544.151 387.224C545.451 386.781 550.797 385.936 551.769 385.723C559.75 383.914 553.666 384.292 561.65 383.437C559.862 383.062 564.472 382.618 569.125 381.768C569.92 381.565 576.622 380.179 577.111 380.182C579.981 379.892 576.904 380.731 581.027 380.36C581.518 380.165 582.004 379.974 582.506 379.787C583.48 379.768 584.451 379.764 585.419 379.777C591.199 381.486 592.558 380.604 594.653 380.684C595.487 380.737 594.373 380.986 596.516 381.215C597.321 381.312 598.273 381.101 600.427 381.524C607.172 383.002 608.786 385.129 615.111 386.269C615.898 386.881 616.674 387.512 617.404 388.142C618.093 388.203 618.787 388.276 619.486 388.363C623.413 391.539 622.28 390.012 623.78 390.968C627.841 393.445 635.029 400.205 635.126 401.37C639.01 403.164 641.122 408.317 642.051 409.451C642.778 410.094 643.505 410.759 644.23 411.446C644.772 412.482 645.304 413.538 645.828 414.614C646.756 413.386 648.768 419 649.034 419.546C649.453 420.135 654.299 427.797 655.78 431.046C656.069 431.64 656.384 432.328 656.705 433.064C658.196 436.489 659.839 440.205 660.036 440.571C660.399 441.269 663.459 446.247 666.281 450.561C667.336 452.161 671.372 458.739 676.712 463.467C681.865 468.56 689.662 469.934 688.639 469.329C686.664 468.837 684.165 467.778 682.169 466.534C676.32 464.532 663.207 446.062 657.695 432.597C655.769 428.4 654.083 425.21 653.085 423.375C644.571 407.562 631.854 392.987 615.743 385.39C614.796 384.939 614.802 384.537 613.98 384.168C612.733 383.591 609.386 382.717 608.101 382.31C603.378 380.663 597.344 379.512 594.674 379.204C588.697 378.462 584.527 378.238 579.941 378.39C578.494 378.398 571.301 379.441 566.345 380.18C565.439 380.232 564.531 380.294 563.619 380.367C566.101 379.707 572.786 378.378 575.922 378.126C580.607 377.684 583.031 378.009 584.762 378.001C586.198 377.934 593.588 377.983 596.9 378.587C597.931 378.747 598.075 379.167 598.947 379.324C603.696 380.135 609.775 381.997 613.73 383.314C612.18 382.64 621.647 387.465 622.031 387.937C622.846 388.427 623.977 388.686 625.563 389.755C628.62 391.899 627.856 392.228 631.939 394.598C632.674 395.51 633.394 396.444 634.101 397.4C635.121 396.601 644.05 408.231 647.244 411.158C647.71 410.862 635.52 396.036 633.849 395.253C626.91 388.544 614.165 381.812 605.127 379.488C602.491 378.552 593.829 376.555 593.132 376.606C592.054 376.516 592.991 376.964 592.526 376.931C583.017 376.536 587.778 376.218 586.518 375.919ZM867.309 383.007C866.66 380.488 865.805 378.039 864.728 375.734C865.008 375.8 865.289 375.871 865.57 375.946C865.997 377.059 866.373 378.196 866.701 379.346C867.145 380.173 867.559 381.004 867.951 381.86C867.741 382.246 867.527 382.629 867.309 383.007ZM869.52 389.194C869.928 391.485 869.431 391.642 869.459 392.174C869.513 393.771 869.749 395.118 869.733 396.674C868.664 394.883 868.95 391.215 869.52 389.194ZM842.832 366.152C843.363 365.861 846.322 365.038 849.077 363.379C851.481 363.261 853.589 363.951 855.443 365.229C852.179 362.741 846.977 364.771 845.251 366.005C844.595 366.383 844.263 366.162 843.705 366.535C840.514 368.686 838.47 372.569 837.316 372.04C840.135 369.123 842.279 366.452 842.832 366.152ZM861.819 369.603C862.024 370.268 862.193 370.928 862.338 371.589C861.046 369.709 859.558 368.046 857.94 366.787C858.536 366.923 859.152 367.114 859.755 367.331C860.48 368.022 861.17 368.787 861.819 369.603ZM729.116 434.824C730.108 433.745 731.155 432.755 732.127 432.149C732.001 431.979 730.843 432.829 730.318 433.179C730.32 433.177 730.322 433.175 730.324 433.174C729.729 433.542 729.754 433.163 728.808 433.996C728.909 434.273 729.012 434.549 729.116 434.824ZM124.257 460.7C121.422 460.066 97.9938 448.25 99.7593 449.637C100.549 450.534 108.639 454.533 111.052 455.644C114.222 457.274 122.868 461.767 124.257 460.7ZM83.6326 438.384C82.7711 438.79 96.4735 447.93 98.0184 448.482C97.7718 448.227 97.4271 447.775 97.0612 447.502C95.242 446.236 86.3557 440.657 83.6326 438.384ZM660.836 436.388C661.12 437.717 661.385 438.98 661.686 440.279C661.905 439.743 662.16 439.272 662.398 438.768C661.881 437.997 661.36 437.204 660.836 436.388ZM562.647 380.773C541.649 385.123 521.76 394.115 502.623 404.135C504.215 403.087 505.823 402.044 507.445 401.008C524.062 392.575 542.517 384.877 559.911 380.696C560.828 380.712 561.74 380.738 562.647 380.773ZM837.388 368.329C833.77 372.21 831.527 376.178 828.197 381.146C830.578 375.862 832.652 374.015 835.556 369.364C835.558 369.362 835.56 369.36 835.562 369.357C836.15 369.015 836.788 368.638 837.388 368.329ZM766.29 453.327C768.019 453.737 769.742 454.06 771.508 454.292C769.505 453.659 767.579 452.899 765.705 452.047C765.895 452.475 766.09 452.902 766.29 453.327ZM387.446 427.29C381.847 428.634 369.027 436.32 366.27 440.389C366.09 440.637 368.369 438.978 365.501 442.563C367.932 440.063 369.547 438.56 369.467 437.938C370.379 437.405 371.273 436.914 372.148 436.463C373.359 435.355 374.678 434.242 375.951 433.251C376.077 433.806 376.195 433.634 378.159 432.045C379.152 431.615 380.341 431.125 381.378 430.775C381.699 430.374 382.05 429.968 382.425 429.564C383.499 429.435 384.448 429.399 385.51 429.369C389.01 427.964 386.658 428.055 387.446 427.29ZM407.081 429.44C406.685 429.231 400.093 426.681 394.838 426.852C389.629 427.02 386.385 428.308 392.123 427.987C395.087 427.734 398.084 428.038 401.041 428.752C398.991 426.368 406.745 430.218 407.306 430.658C410.361 432.03 414.524 433.429 416.873 434.338C418.886 435.13 420.021 435.837 421.515 436.277C426.538 438.102 435.281 437.939 436.234 436.846C432.18 437.408 427.967 437.125 423.853 436.127C419.49 435.083 416.14 432.89 408.269 430.622C406.441 429.793 407.296 429.557 407.081 429.44ZM776.562 455.618C776.389 455.946 778.965 456.589 781.675 456.617C784.379 456.694 787.102 456.043 787.097 455.892C787.088 455.78 783.608 456.237 783.102 456.129C783.098 456.129 783.095 456.129 783.092 456.129C782.887 456.106 783.911 455.808 782.298 455.771C780.376 455.904 778.459 455.837 776.562 455.618ZM163.794 469.992C162.316 470.077 131.39 462.115 130.622 461.335C130.363 461.299 130.638 461.586 130.509 461.647C137.7 463.705 147.709 467.258 154.681 468.728C156.612 469.146 156.092 468.742 156.202 468.76C156.207 468.761 156.211 468.762 156.216 468.763C157.316 469.006 162.175 470.601 163.794 469.992ZM358.806 447.681C359.9 447.1 360.802 446.468 361.745 445.632C361.948 445.454 362.149 445.279 362.35 445.105C362.437 444.699 362.525 444.295 362.613 443.893C362.611 443.895 362.608 443.898 362.606 443.9C362.206 444.355 361.804 444.82 361.397 445.294C360.595 446.217 359.814 446.963 358.806 447.681ZM314.147 435.506C314.418 435.747 314.686 435.99 314.95 436.234C318.182 437.241 321.324 438.448 324.451 439.774C324.104 439.725 323.757 439.677 323.408 439.63C328.048 441.805 330.158 442.216 332.658 443.419C332.655 443.418 332.653 443.417 332.65 443.415C332.92 443.547 333.086 443.98 334.104 444.449C336.333 445.544 343.154 448.426 344.121 448.269C346.016 448.468 332.352 443.207 329.985 441.957C328.879 441.445 327.637 440.587 326.965 440.289C326.222 439.962 325.043 439.866 323.226 439.115C322.689 438.857 316.865 436.157 314.147 435.506ZM258.834 449.322C259.116 449.219 259.431 449.024 259.752 448.783C260.643 448.112 261.592 447.16 262.083 446.842C262.241 446.738 261.245 447.865 262.723 446.855C263.004 446.392 263.287 445.934 263.571 445.479C262.272 446.468 260.962 447.522 259.64 448.645C259.373 448.872 259.104 449.098 258.834 449.322ZM793.861 452.774C793.646 453.007 788.345 455.123 788.039 455.069C786.432 455.739 788.556 455.539 790.732 454.72C792.911 453.93 794.923 452.48 793.861 452.774ZM869.712 373.919C869.561 372.782 871.884 376.928 873.252 382.768C874.726 388.591 874.904 396.02 874.435 400.331C874.267 402.19 874.201 403.417 874.19 403.896C873.876 403.818 873.989 401.758 874.066 400.304C874.115 399.129 874.075 398.525 873.593 400.231C874.537 396.714 873.421 386.825 872.842 384.585C872.617 383.191 873.009 382.73 872.975 382.517C872.945 381.603 869.945 374.816 869.712 373.919ZM881.864 425.922C878.892 425.238 876.876 422.632 875.958 419.981C877.174 423.084 880.079 425.68 883.47 425.586C882.949 425.742 882.428 425.861 881.864 425.922ZM885.521 425.746C885.428 425.484 887.797 425.124 890.328 424.1C892.874 423.123 895.593 421.691 896.673 421C894.634 423.235 889.93 424.903 885.521 425.746ZM810.872 421.128C810.616 421.87 810.439 422.563 810.325 423.171C809.816 425.787 810.516 426.718 811.064 423.355C811.116 423.021 811.166 422.647 811.214 422.232C811.231 422.06 810.939 420.946 810.872 421.128ZM385.453 425.301C384.498 425.212 375.205 429.072 375.014 429.82C373.939 431.51 379.279 427.809 381.468 427.365C384.973 426.652 380.132 428.473 388.202 425.885C387.899 426.129 387.6 426.379 387.305 426.635C392.044 425.717 390.412 424.924 391.27 424.616C391.527 424.5 394.734 424.502 395.304 424.499C398.932 424.318 396.687 423.852 393.336 423.898C389.981 423.905 385.749 425.184 385.453 425.301ZM727.988 429.599C721.157 435.873 724.499 433.563 718.992 440.916C719.057 441.358 726.839 430.365 727.988 429.599ZM467.193 420.092C459.694 424.53 453.164 427.741 446.266 431.62C445.834 431.86 445.405 432.093 444.978 432.32C445.099 432.417 445.616 432.309 446.443 431.996C451.825 430.18 469.092 419.294 467.193 420.092ZM68.9616 423.255C73.8765 426.031 78.5558 429.304 83.1074 432.913C107.705 452.626 141.076 466 173.17 469.082C177.29 469.474 177.667 469.882 179.164 469.94C180.145 469.969 179.99 469.624 181.297 469.687C209.182 471.06 237.432 464.127 258.271 446.961C272.543 434.747 292.518 427.803 311.047 432.899C314.044 433.287 326.945 438.958 330.044 439.34C332.471 439.487 322.93 436.02 321.299 435.502C320.105 435.052 320.172 434.665 319.371 434.38C318.516 434.081 319.137 434.576 318.139 434.241C313.905 432.82 309.135 431.543 305.058 431.037C287.72 428.472 270.632 435.872 257.9 446.504C241.347 460.041 220.173 467.031 198.644 468.568C194.063 468.871 194.991 468.461 194.761 468.483C194.758 468.483 194.755 468.484 194.752 468.485C170.213 469.723 141.75 464.302 118.01 453.122C105.812 447.426 94.2346 440.446 83.5572 432.309C79.4155 429.158 75.1358 426.291 70.5653 423.817C70.0262 423.62 69.4916 423.433 68.9616 423.255ZM405.66 427.362C403.733 425.671 403.078 425.786 394.46 424.688C393.751 424.877 393.048 425.091 392.351 425.332C396.91 425.009 401.439 425.928 405.673 427.367C405.669 427.365 405.664 427.364 405.66 427.362ZM356.709 446.153C355.792 445.822 351.995 447.23 346.551 445.619C341.193 444.198 335.008 441.339 331.22 439.52C329.496 439.592 340.72 444.391 343.356 445.266C344.461 445.685 352.074 449.453 356.844 446.267C356.799 446.229 356.754 446.191 356.709 446.153ZM843.938 358.165C842.571 358.797 841.252 359.589 840.07 360.436C843.205 358.542 846.91 357.216 850.74 357.295C844.611 357.349 839.233 360.843 835.207 364.721C835.676 363.784 836.309 362.745 836.938 361.789C838.997 360.349 841.399 359.004 843.938 358.165ZM830.048 370.579C836.133 362.697 830.183 371.351 828.74 373.104C827.727 374.205 829.493 371.325 830.048 370.579ZM817.83 392.605C818.865 388.175 822.896 379.862 822.499 383.328C819.895 387.511 819.046 390.509 816.27 397.064C816.429 395.987 816.591 394.928 816.756 393.886C816.758 393.882 816.76 393.877 816.762 393.873C817.118 393.443 817.474 393.021 817.83 392.605ZM832.32 366.575C834.832 364.289 832.682 366.681 830.769 369.137C828.802 371.647 826.996 374.217 828.434 371.651C828.473 371.434 832.12 366.644 832.32 366.575ZM103.126 443.728C102.294 443.699 106.394 445.998 107.773 446.74C113.699 450.046 121.684 453.536 128.246 456.099C127.794 455.791 127.348 455.483 126.901 455.172C118.722 451.922 110.77 448.093 103.126 443.728ZM149.238 462.792C153.928 463.975 158.674 464.967 163.437 465.746C163.884 465.823 166.021 465.825 164.481 465.506C159.374 464.837 154.283 463.926 149.238 462.792ZM434.762 432.858C433.066 432.89 434.625 432.504 436.5 432.027C438.35 431.574 440.578 430.876 440.538 431.497C438.662 432.137 436.698 432.61 434.762 432.858ZM465.143 418.576C463.079 419.881 461.192 421.079 459.135 422.355C459.067 422.239 458.999 422.124 458.931 422.009C461.055 420.849 463.01 419.767 465.143 418.576ZM87.2768 433.28C88.9985 435.097 93.9129 438.336 97.0364 440.257C95.087 438.611 89.9625 435.471 87.2768 433.28ZM379.071 426.037C379.283 426.091 375.769 427.884 373.002 429.721C370.369 431.421 368.111 433.031 370.211 431.091C372.982 429.186 375.876 427.466 379.071 426.037ZM354.935 443.919C356.784 443.112 358.095 441.649 358.11 442.378C357.143 443.311 356.158 443.955 355.066 444.368C355.023 444.218 354.979 444.068 354.935 443.919ZM811.353 408.451C809.954 413.212 808.798 417.607 807.618 422.497C807.461 423.152 807.299 423.794 807.134 424.424C807.056 424.202 806.977 423.979 806.897 423.756C807.011 423.311 807.123 422.859 807.233 422.401C808.415 417.499 809.574 413.091 810.977 408.317C811.103 408.361 811.228 408.406 811.353 408.451ZM85.557 430.546C85.4063 430.44 85.2558 430.334 85.1054 430.228C82.0262 428.042 78.9518 426.058 75.7226 424.225C78.8655 426.202 81.8375 428.32 84.8046 430.632C84.9525 430.748 85.1005 430.863 85.2487 430.979C85.3543 430.836 85.46 430.693 85.5657 430.55C85.5628 430.548 85.5599 430.547 85.557 430.546ZM862.348 356.864C857.804 353.93 855.04 353.685 854.743 353.418C854.362 353.237 856.159 353.307 858.634 354.169C863.896 355.719 869.585 361.76 870.584 364.15C870.588 364.154 870.592 364.158 870.596 364.162C870.799 364.571 869.92 364.045 870.234 364.734C869.195 363.023 868.025 361.393 866.616 359.829C865.076 358.689 863.419 357.683 861.588 356.862C861.071 356.458 860.546 356.079 859.978 355.713C860.799 356.055 861.578 356.435 862.348 356.864ZM882.186 419.382C882.598 419.845 882.725 419.871 882.973 419.998C883.21 420.102 883.457 420.164 883.569 420.217C883.822 420.313 883.413 420.434 882.935 420.394C882.466 420.326 882.046 420.264 881.388 419.263C880.759 418.299 880.278 416.529 880.182 415.006C880.285 415.045 880.57 416.232 881.052 417.41C881.496 418.523 882.053 419.242 882.186 419.382ZM878.661 383.394C878.029 380.859 877.232 378.362 876.242 375.904C876.231 375.548 876.217 375.193 876.2 374.837C877.042 376.709 877.764 378.591 878.396 380.546C878.509 381.498 878.595 382.44 878.661 383.394ZM816.549 384.055C814.846 387.664 813.779 392.788 818.894 380.972C818.771 380.919 818.648 380.866 818.526 380.813C818.311 381.289 817.746 382.759 817.701 382.837C817.564 383.051 817.279 382.592 816.549 384.055ZM897.965 409.61C898.338 409.33 897.602 408.066 902.544 406.796C903.825 405.947 905.085 405.114 906.911 404.184C907.478 404.27 908.137 404.329 908.802 404.414C904.898 405.864 903.968 406.764 903.13 407.346C902.362 407.946 902.274 408.191 902.096 408.306C900.55 409.316 901.53 408.338 900.537 408.944C897.935 410.572 892.816 413.951 894.725 411.709C895.406 410.913 897.62 409.887 897.965 409.61ZM889.495 413.662C890.013 413.533 888.708 414.652 889.108 414.58C889.396 414.629 894.485 412.229 893.519 413.575C892.685 414.028 891.859 414.459 891.053 414.855C890.696 414.829 890.344 414.798 889.992 414.763C889.321 415.303 888.665 415.811 888.024 416.278C886.572 416.401 884.35 416.466 886.781 415.205C885.79 415.643 884.911 415.934 884.351 416.062C884.107 416.33 883.918 416.563 883.828 416.785C883.887 416.443 883.936 416.098 883.992 415.749C884.703 415.736 887.131 414.924 889.495 413.662ZM941.223 418.607C940.962 418.634 940.695 418.655 940.438 418.684C945.296 421.903 952.53 427.345 947.772 425.082C941.477 420.371 935.17 415.734 928.626 411.18C928.275 410.766 927.915 410.347 927.557 409.931C932.114 413.804 931.898 410.958 935.682 414.507C936.312 415.107 933.85 414.229 938.497 417.07C938.446 416.809 938.401 416.553 938.353 416.295C939.314 417.065 940.268 417.834 941.223 418.607ZM980.962 422.983C978.809 423.191 977.108 423.315 976.677 423.308C976.404 423.363 975.599 423.538 975.336 423.629C975.423 423.566 975.408 423.535 975.305 423.532C975.571 423.439 976.384 423.263 976.66 423.208C977.174 423.001 978.939 422.683 980.215 422.506C981.537 422.321 982.68 422.176 983.167 422.258C983.165 422.258 983.162 422.259 983.16 422.259C987.264 422.995 979.067 423.718 977.34 423.866C977.192 423.89 977.009 423.939 976.794 424.006C976.54 424.057 975.792 424.219 975.548 424.304C976.45 424.3 974.628 425.339 970.917 424.073C971.999 424.049 973.075 424.009 974.023 423.942C974.477 423.91 974.927 423.869 975.266 423.826C975.552 423.801 975.904 423.7 975.403 423.844C975.66 423.755 976.447 423.584 976.714 423.531C978.565 423.24 979.81 423.138 980.962 422.983ZM950.714 423.482C951.545 423.485 951.069 423.732 951.419 423.744C951.422 423.744 951.425 423.744 951.428 423.744C956.643 423.973 968.779 423.934 969.964 424.693C966.434 424.97 949.228 424.527 948.227 423.833C949.076 423.719 949.892 423.601 950.714 423.482ZM924.436 407.26C921.926 404.881 928.332 409.135 929.726 410.491C929.983 410.748 927.03 409.721 924.436 407.26ZM782.49 444.289C778.082 444.532 783.915 445.002 781.882 445.497C782.762 445.459 783.605 445.355 784.389 445.189C783.74 444.929 783.1 444.627 782.49 444.289ZM521.728 379.463C520.114 380.092 520.996 380.063 520.859 380.126C519.815 380.57 518.732 380.763 518.345 380.966C511.243 384.761 516.226 382.801 516.321 382.823C516.606 383.044 514.849 384.251 517.649 383.379C519.211 382.551 520.784 381.733 522.369 380.93C523.247 380.745 524.126 380.565 525.005 380.389C528.12 378.686 523.813 380.356 523.138 380.104C522.872 380.002 525.848 378.481 521.728 379.463ZM774.278 441.711C773.315 441.977 770.9 441.755 772.78 443.107C772.782 443.108 772.785 443.109 772.787 443.11C773.129 443.361 774.674 443.955 775.101 444.225C778.65 444.384 777.463 443.419 774.278 441.711ZM552.097 367.816C555.014 367.2 557.969 366.658 560.957 366.205C560.971 366.545 560.986 366.884 561.001 367.223C559.414 367.443 557.818 367.693 556.245 367.963C555.738 368.237 555.233 368.514 554.731 368.793C556.718 368.706 558.745 368.647 560.75 368.635C563.052 368.036 565.352 367.497 567.728 367.013C566.611 366.998 565.472 367 564.369 367.011C570.154 365.885 569.017 366.885 573.869 366.671C575.512 366.202 577.171 365.767 578.846 365.37C581.3 365.558 583.779 365.826 586.231 366.186C590.362 366.156 590.757 365.986 587.972 365.494C590.055 365.164 592.309 365.951 594.822 366.06C595.03 366.069 594.682 365.645 594.866 365.661C607.932 367.196 606.946 368.771 608.959 369.203C610.37 369.569 616.252 370.912 616.4 370.773C616.65 370.668 605.302 364.488 623.687 372.264C614.724 366.727 602.919 365.16 609.876 368.227C606.877 366.878 592.989 365.004 592.124 365.148C590.847 364.995 591.324 364.549 589.717 364.443C588.764 364.424 586.219 365.19 578.805 364.569C577.87 364.795 576.941 365.032 576.016 365.281C575.126 365.202 574.233 365.134 573.338 365.076C575.1 364.378 576.89 363.719 578.709 363.104C571.429 364.05 565.387 363.977 561.312 365.666C557.625 366.28 555.829 366.623 557.302 365.816C556.193 366.06 555.12 366.31 554.036 366.573C553.385 366.983 552.739 367.398 552.097 367.816ZM758.68 433.882C756.555 431.661 755.014 431.817 755.345 432.172C757.255 434.137 759.804 435.029 758.68 433.882ZM527.892 377.548C531.623 376.363 535.411 375.254 539.218 374.26C539.103 373.924 538.988 373.588 538.873 373.252C535.162 374.589 531.491 376.034 527.892 377.548ZM783.039 443.464C783.245 443.716 783.458 443.964 783.678 444.207C785.724 443.032 787.904 443.482 788.792 442.597C788.962 442.416 788.303 442.282 787.891 442.389C787.761 442.428 786.712 442.884 785.595 443.113C784.49 443.366 783.24 443.409 783.039 443.464ZM885.814 393.135C885.552 391.323 885.215 389.5 884.809 387.733C885.119 387.796 885.428 387.859 885.738 387.923C885.903 388.813 886.051 389.712 886.182 390.618C886.075 391.463 885.952 392.309 885.814 393.135ZM881.113 372.765C879.914 369.627 878.42 366.515 876.507 363.499C883.19 375.058 878.282 365.327 881.923 372.45C881.653 372.555 881.383 372.66 881.113 372.765ZM852.341 347.44C852.95 347.288 853.569 347.158 854.194 347.049C859.191 347.602 863.732 349.618 867.292 352.133C865.378 350.033 862.996 348.039 860.078 346.436C858.278 345.847 856.36 345.42 854.423 345.198C853.678 345.919 852.983 346.668 852.341 347.44ZM455.176 413.256C453.677 414.096 449.23 417.145 449.47 417.231C451.651 416.336 453.666 415.502 455.901 414.53C455.737 414.215 455.572 413.899 455.408 413.583C455.797 413.568 456.145 413.575 456.517 413.569C457.581 412.818 458.667 412.049 459.776 411.264C460.517 411.2 461.291 411.116 462.017 411.059C462.417 410.422 462.821 409.781 463.23 409.138C457.325 411.794 457.804 412.23 456.665 412.869C456.084 413.193 455.623 413.199 455.356 413.221C455.296 413.233 455.236 413.245 455.176 413.256ZM529.588 374.445C521.869 377.377 518.029 380.15 512.369 381.908C516.312 381.649 538.345 370.619 547.484 369.838C548.281 369.329 549.105 368.82 549.928 368.32C545.319 369.824 542.02 370.326 539.757 370.991C537.984 371.519 538.259 371.728 538.124 371.768C538.118 371.77 538.112 371.772 538.105 371.775C533.989 373.08 532.627 373.315 529.588 374.445ZM785.511 441.674C784.573 441.577 782.987 441.792 782.959 442.395C783.993 442.502 784.948 442.494 785.889 442.362C785.658 442.273 785.679 441.695 785.511 441.674ZM846.448 346.097C843.27 346.238 837.321 349.086 840.111 348.47C840.448 348.251 846.902 346.051 843.365 348.035C846.39 347.159 847.8 346.843 847.978 346.515C848.191 346.208 847.323 346.004 846.448 346.097ZM661.928 408.975C662.746 410.225 663.552 411.503 664.348 412.81C664.744 412.989 665.14 413.172 665.536 413.358C664.346 411.845 663.143 410.384 661.928 408.975ZM791.947 435.639C793.647 435.304 793.774 432.796 795.744 430.782C796.17 429.833 796.531 428.958 796.912 427.954C796.913 427.951 796.914 427.949 796.915 427.946C796.613 427.804 796.311 427.662 796.009 427.52C794.862 430.582 793.46 433.438 791.947 435.639ZM579.882 363.516C580.842 363.632 581.792 363.76 582.761 363.9C584.47 363.696 586.19 363.532 587.919 363.413C586.992 363.251 586.061 363.102 585.127 362.965C583.363 363.105 581.599 363.291 579.882 363.516ZM798.303 419.242C798.216 419.546 798.138 419.839 798.068 420.12C797.259 423.224 797.834 424.43 798.962 420.343C798.998 420.204 799.035 420.061 799.072 419.913C799.696 417.432 799.683 414.495 798.303 419.242ZM376.338 417.224C378.283 416.449 380.168 415.825 382.271 415.286C382.905 414.864 383.5 414.47 384.201 414.068C381.41 414.89 378.799 415.97 376.338 417.224ZM877.12 360.594C876.795 360.521 876.471 360.452 876.147 360.387C875.036 358.805 873.877 357.343 872.45 355.824C872.967 356.034 873.483 356.259 873.995 356.493C875.127 357.8 876.208 359.232 877.12 360.594ZM390.202 413.589C391.928 413.466 393.778 413.458 395.503 413.57C396.702 413.508 397.875 413.498 399.039 413.534C397.464 413.228 395.772 413.006 394.12 412.893C392.809 413.06 391.459 413.295 390.202 413.589ZM813.298 376.948C812.111 378.618 809.802 385.682 812.807 379.711C814.871 375.793 813.468 376.725 813.298 376.948ZM818.273 367.656C814.03 373.824 818.506 370.346 822.934 361.806C817.412 369.593 818.636 367.314 818.273 367.656ZM885.246 372.549C885.314 372.751 885.046 373.049 885.568 374.659C887.503 380.437 888.504 388.171 888.641 392.38C888.749 394.547 888.841 397.7 888.605 401.359C888.276 405.933 888.497 411.812 889.116 413.919C889.236 414.417 889.34 414.628 889.229 414.468C889.134 414.335 888.761 413.803 888.114 413.286C887.483 412.769 886.655 412.357 886.057 412.193C885.446 412.02 885.046 412.027 884.832 412.087C884.399 412.224 885.143 413.086 884.967 413.086C884.708 413.047 884.013 412.886 883.859 412.898C883.674 412.899 883.853 412.929 883.832 413.18C883.724 413.196 883.871 413.151 884.333 413.216C884.783 413.276 885.562 413.509 886.228 413.925C886.891 414.326 887.356 414.83 887.535 415.075C887.732 415.342 887.703 415.357 887.632 415.176C888.026 415.219 888.361 415.013 888.394 414.461C888.678 414.902 888.594 414.886 888.537 414.771C888.471 414.662 888.363 414.384 888.295 414.196C888.143 413.774 888.033 413.405 887.936 413.19C887.749 412.773 887.574 412.925 887.069 412.011C887.218 410.77 887.441 409.54 887.708 408.153C887.452 406.051 887.314 403.789 887.281 401.263C887.291 399.982 887.265 398.71 887.204 397.448C887.409 398.484 887.589 399.535 887.745 400.599C888.427 393.668 888.02 395.541 887.341 391.811C887.562 391.789 887.783 391.767 888.004 391.745C886.941 385.103 887.112 383.749 886.875 382.269C886.02 379.171 883.699 376.417 880.295 364.352C876.492 360.442 878.507 359.102 875.354 357.233C869.609 348.735 882.653 363.507 884.42 370.99C884.421 370.994 884.423 370.998 884.424 371.002C884.632 371.552 884.53 370.585 885.246 372.549ZM842.324 346.783C845.725 345.25 840.107 346.176 836.032 348.582C832.07 350.831 829.388 353.718 832.964 352.005C833.973 351.351 835.001 350.75 836.05 350.204C837.95 348.892 839.889 347.766 842.341 346.778C842.335 346.78 842.33 346.782 842.324 346.783ZM764.93 434.14C754.401 427.355 759.829 432.06 763.707 433.927C764.466 434.275 764.955 434.375 764.93 434.14ZM518.406 378.124C518.255 378.341 518.106 378.558 517.957 378.776C522.584 376.519 532.16 373.354 531.721 372.56C527.205 374.296 522.76 376.166 518.406 378.124ZM557.795 364.249C556.611 364.424 551.989 365.405 552.629 365.616C554.675 365.358 556.725 365.139 558.806 364.956C559.716 364.608 560.631 364.268 561.551 363.937C560.217 364.131 558.109 364.193 557.795 364.249Z" fill="#FBAD19"/>
</g>
<defs>
<clipPath id="clip0_439_124">
<rect width="977" height="549" fill="white"/>
</clipPath>
</defs>
</svg>
